<svg version="1.1" xmlns:cc="http://creativecommons.org/ns#" xmlns:dc="http://purl.org/dc/elements/1.1/" xmlns:rdf="http://www.w3.org/1999/02/22-rdf-syntax-ns#" xmlns="http://www.w3.org/2000/svg" xmlns:xlink="http://www.w3.org/1999/xlink" x="0px" y="0px" viewBox="0 0 1024 768" xml:space="preserve">
<style>
#logo-fade{
opacity: 0;
animation: fadeIn 4s ease-in forwards infinite;
}

@keyframes fadeIn { 0% { opacity:0; } 50% { opacity:0; } 100% { opacity:1; } }
@keyframes fadeOut { from { opacity:1; } to { opacity:0; } }

#outline{
opacity: 1;
stroke-dasharray: 2000;
stroke-dashoffset: 2000;
animation: dash 4s ease-in-out forwards infinite;
}

@keyframes dash {
  0% {
    opacity: 1;
    stroke-dashoffset: 2000;
  }
  50% {
    opacity: 1;
    stroke-dashoffset: 1000;
  }
  100% {
    opacity: 0;
    stroke-dashoffset: 0;
  }
}
</style>
<path id="outline" d="m327.53 316.57c-0.12 0-0.29 0.02-0.38 0.03-0.09 0.02-0.23 0.06-0.3 0.09l-0.24 0.12c-0.05 0.04-0.14 0.1-0.2 0.14-0.05 0.05-0.15 0.15-0.2 0.23-0.06 0.08-0.14 0.21-0.17 0.29s-0.08 0.29-0.11 0.47-0.27 1.51-0.53 2.95c-0.25 1.44-0.48 2.68-0.49 2.75l-0.03 0.13-0.22 0.02c-0.12 0.01-0.47 0.04-0.78 0.06-0.31 0.03-0.79 0.08-1.06 0.11-0.27 0.04-0.74 0.11-1.04 0.16-0.29 0.05-0.69 0.11-0.87 0.15-0.18 0.03-0.5 0.1-0.71 0.15-0.22 0.04-0.63 0.14-0.91 0.21-0.29 0.07-0.62 0.16-0.75 0.19-0.12 0.04-0.46 0.14-0.76 0.23-0.29 0.09-0.74 0.24-1 0.33-0.27 0.08-0.67 0.23-0.9 0.32l-0.43 0.16-0.18-0.24c-0.1-0.14-0.37-0.52-0.61-0.86s-0.74-1.06-1.11-1.59-0.88-1.25-1.12-1.6c-0.39-0.54-0.49-0.68-0.75-0.93-0.25-0.23-0.34-0.31-0.49-0.38-0.1-0.04-0.24-0.1-0.32-0.11-0.07-0.02-0.19-0.03-0.25-0.03-0.07 0-0.19 0.02-0.26 0.04-0.08 0.02-0.21 0.07-0.28 0.1-0.07 0.04-0.39 0.25-0.7 0.46-0.31 0.22-0.85 0.59-1.18 0.82-0.34 0.24-1.66 1.16-2.94 2.05s-2.73 1.9-3.23 2.24c-0.5 0.35-0.96 0.68-1.03 0.74-0.07 0.07-0.17 0.18-0.23 0.27-0.06 0.08-0.13 0.21-0.17 0.28-0.03 0.07-0.09 0.2-0.12 0.3-0.05 0.13-0.06 0.23-0.06 0.41 0 0.16 0.02 0.29 0.05 0.39s0.13 0.28 0.33 0.58c0.16 0.24 0.47 0.69 0.69 1 0.21 0.31 0.62 0.9 0.9 1.31 0.29 0.41 0.74 1.04 1 1.41s0.57 0.79 0.68 0.94c0.11 0.14 0.19 0.28 0.19 0.29 0 0.02-0.07 0.12-0.17 0.23-0.09 0.1-0.26 0.3-0.37 0.43s-0.34 0.41-0.51 0.63c-0.17 0.21-0.41 0.52-0.54 0.69-0.12 0.17-0.36 0.49-0.52 0.71s-0.41 0.6-0.57 0.83c-0.16 0.24-0.38 0.6-0.51 0.8-0.12 0.2-0.31 0.51-0.42 0.69-0.1 0.18-0.3 0.53-0.43 0.78-0.14 0.25-0.33 0.61-0.42 0.8-0.1 0.2-0.29 0.6-0.43 0.91s-0.26 0.57-0.26 0.57c-0.01 0.01-0.24-0.03-0.51-0.08-0.27-0.06-0.8-0.15-1.18-0.22-0.37-0.07-1.04-0.19-1.47-0.26-0.44-0.08-1.09-0.19-1.44-0.24-0.36-0.06-0.84-0.13-1.08-0.17-0.35-0.05-0.5-0.06-0.67-0.05-0.13 0-0.31 0.04-0.41 0.07-0.09 0.03-0.25 0.09-0.35 0.14s-0.24 0.16-0.33 0.25c-0.1 0.1-0.18 0.21-0.24 0.34l-0.1 0.19-0.16 0.9c-0.09 0.5-0.42 2.39-0.73 4.2-0.32 1.81-0.66 3.79-0.77 4.4s-0.21 1.18-0.22 1.26c-0.01 0.09 0 0.25 0.01 0.38 0.02 0.12 0.07 0.31 0.11 0.41 0.04 0.11 0.11 0.27 0.16 0.34 0.05 0.08 0.16 0.2 0.24 0.27s0.21 0.16 0.3 0.2c0.08 0.04 0.26 0.1 0.39 0.13 0.13 0.02 1.12 0.2 2.2 0.4 1.08 0.19 2.37 0.42 2.87 0.51 0.64 0.11 0.91 0.17 0.92 0.2 0.01 0.02 0.03 0.23 0.05 0.47 0.01 0.25 0.05 0.61 0.07 0.81s0.06 0.55 0.08 0.77c0.03 0.22 0.09 0.62 0.13 0.89s0.12 0.7 0.17 0.95c0.04 0.25 0.15 0.73 0.22 1.06 0.08 0.33 0.21 0.87 0.3 1.2 0.09 0.32 0.22 0.76 0.28 0.97 0.06 0.2 0.18 0.56 0.26 0.79 0.07 0.23 0.23 0.66 0.34 0.95 0.11 0.3 0.19 0.54 0.19 0.55-0.01 0-0.25 0.17-0.54 0.36-0.29 0.2-0.84 0.59-1.22 0.86s-0.98 0.7-1.34 0.95c-0.35 0.25-0.9 0.63-1.22 0.85s-0.63 0.45-0.69 0.5c-0.06 0.06-0.16 0.18-0.22 0.26s-0.13 0.21-0.17 0.28c-0.03 0.07-0.08 0.2-0.11 0.28-0.03 0.09-0.06 0.24-0.07 0.32-0.01 0.09-0.01 0.24 0.01 0.33 0.02 0.1 0.06 0.23 0.09 0.3s0.48 0.74 1 1.49 1.59 2.28 2.37 3.4c0.78 1.13 1.73 2.49 2.1 3.03 0.51 0.73 0.73 1.03 0.87 1.17 0.11 0.11 0.27 0.24 0.37 0.3 0.09 0.05 0.26 0.13 0.37 0.17 0.11 0.03 0.29 0.07 0.39 0.08 0.11 0.01 0.26 0 0.33-0.02 0.08-0.01 0.2-0.06 0.28-0.09 0.07-0.04 0.38-0.24 0.69-0.46s1.25-0.89 2.09-1.48c0.85-0.6 1.74-1.23 1.98-1.4 0.37-0.27 0.45-0.32 0.49-0.29 0.02 0.01 0.21 0.17 0.41 0.35 0.21 0.18 0.64 0.54 0.96 0.79 0.32 0.26 0.8 0.62 1.07 0.82s0.74 0.52 1.04 0.73c0.31 0.2 0.73 0.47 0.95 0.61 0.21 0.13 0.61 0.36 0.87 0.5 0.26 0.15 0.81 0.44 1.22 0.65 0.41 0.2 0.96 0.46 1.22 0.57 0.27 0.11 0.47 0.21 0.47 0.23s-0.08 0.47-0.18 1c-0.09 0.53-0.21 1.18-0.26 1.45s-0.15 0.87-0.23 1.33c-0.07 0.45-0.19 1.18-0.25 1.62-0.1 0.67-0.12 0.83-0.1 1.02 0 0.13 0.03 0.31 0.06 0.41 0.03 0.09 0.1 0.25 0.15 0.35s0.16 0.24 0.25 0.33c0.1 0.1 0.21 0.18 0.34 0.24 0.15 0.08 0.27 0.11 0.8 0.21 0.34 0.06 0.91 0.16 1.27 0.23 0.36 0.06 1.84 0.32 3.29 0.57s2.96 0.51 3.35 0.58c0.4 0.07 1.03 0.18 1.4 0.25 0.38 0.06 0.75 0.13 0.84 0.13 0.08 0.01 0.25 0.01 0.37-0.01 0.12-0.01 0.31-0.06 0.42-0.1s0.26-0.11 0.34-0.16c0.07-0.05 0.2-0.16 0.27-0.23 0.07-0.08 0.15-0.19 0.18-0.25 0.02-0.05 0.06-0.14 0.08-0.2s0.21-1.07 0.42-2.25 0.45-2.57 0.55-3.1c0.09-0.53 0.17-0.97 0.18-0.98 0-0.01 0.25-0.03 0.54-0.05s0.74-0.06 1-0.09c0.25-0.03 0.62-0.07 0.83-0.1 0.2-0.03 0.6-0.09 0.89-0.14s0.77-0.14 1.08-0.2c0.3-0.06 0.8-0.18 1.11-0.25 0.31-0.08 0.78-0.2 1.04-0.28 0.26-0.07 0.68-0.2 0.93-0.28s0.7-0.23 1.01-0.34c0.3-0.11 0.65-0.24 0.77-0.28l0.22-0.09 0.57 0.82c0.31 0.46 0.72 1.06 0.92 1.34 0.2 0.29 0.71 1 1.12 1.59 0.42 0.59 0.83 1.14 0.91 1.23s0.22 0.21 0.3 0.27c0.09 0.06 0.23 0.15 0.32 0.19s0.24 0.09 0.35 0.11c0.13 0.03 0.25 0.04 0.4 0.03 0.15 0 0.27-0.03 0.37-0.07 0.09-0.04 0.57-0.35 1.19-0.78 0.56-0.39 1.93-1.34 3.03-2.11s2.63-1.83 3.39-2.36 1.44-1.02 1.52-1.09c0.07-0.08 0.19-0.22 0.26-0.32 0.06-0.11 0.15-0.26 0.18-0.35 0.04-0.09 0.08-0.24 0.1-0.33 0.02-0.1 0.02-0.25 0.01-0.36 0-0.1-0.04-0.24-0.07-0.32-0.03-0.09-0.25-0.44-0.56-0.88-0.28-0.4-0.93-1.34-1.45-2.09-0.52-0.74-1.12-1.58-1.32-1.88l-0.37-0.54 0.22-0.24c0.12-0.14 0.34-0.39 0.49-0.56s0.37-0.45 0.5-0.62c0.14-0.17 0.37-0.48 0.53-0.69 0.16-0.22 0.42-0.57 0.57-0.8 0.15-0.22 0.38-0.57 0.52-0.78 0.13-0.21 0.33-0.53 0.44-0.72 0.11-0.18 0.33-0.56 0.49-0.84 0.15-0.28 0.44-0.83 0.64-1.24 0.2-0.4 0.45-0.94 0.57-1.2 0.18-0.42 0.21-0.47 0.26-0.46 0.03 0 0.31 0.05 0.62 0.11s1.35 0.23 2.32 0.39c0.96 0.16 2.03 0.34 2.38 0.41 0.46 0.08 0.69 0.11 0.87 0.11 0.16 0 0.31-0.02 0.44-0.05 0.11-0.03 0.28-0.09 0.38-0.14 0.09-0.04 0.24-0.14 0.31-0.2 0.08-0.07 0.18-0.19 0.23-0.27 0.06-0.08 0.12-0.22 0.15-0.3 0.03-0.09 0.07-0.29 0.1-0.45s0.12-0.67 0.2-1.13c0.09-0.47 0.38-2.17 0.66-3.79 0.28-1.61 0.58-3.34 0.67-3.84s0.17-0.96 0.19-1.03c0.01-0.07 0.04-0.31 0.05-0.52 0.02-0.21 0.03-0.48 0.03-0.58 0-0.13-0.02-0.23-0.05-0.33-0.03-0.07-0.11-0.2-0.17-0.28-0.06-0.07-0.17-0.18-0.25-0.23-0.07-0.05-0.21-0.12-0.3-0.16-0.1-0.03-0.71-0.15-1.5-0.3-0.73-0.13-2-0.35-2.83-0.5-0.82-0.15-1.59-0.28-1.7-0.31-0.11-0.02-0.23-0.04-0.26-0.05l-0.05-0.01-0.02-0.22c-0.01-0.12-0.03-0.42-0.05-0.67s-0.07-0.7-0.1-1c-0.04-0.3-0.1-0.76-0.14-1.02s-0.11-0.67-0.15-0.89c-0.04-0.23-0.13-0.65-0.19-0.94-0.06-0.28-0.16-0.67-0.2-0.85-0.05-0.19-0.14-0.51-0.19-0.71-0.06-0.2-0.18-0.6-0.27-0.9-0.09-0.29-0.25-0.77-0.36-1.07-0.11-0.29-0.26-0.72-0.35-0.94s-0.15-0.4-0.14-0.41c0.01-0.02 0.26-0.18 0.54-0.38 0.29-0.19 1.03-0.71 1.65-1.16 0.63-0.44 1.31-0.92 1.52-1.07 0.2-0.14 0.52-0.36 0.7-0.48 0.18-0.13 0.44-0.33 0.58-0.46s0.29-0.3 0.35-0.37c0.05-0.07 0.13-0.2 0.17-0.29 0.04-0.08 0.08-0.23 0.1-0.33 0.02-0.13 0.02-0.22 0-0.35-0.02-0.1-0.07-0.26-0.11-0.35-0.05-0.1-0.46-0.71-0.92-1.37-0.45-0.66-1.56-2.25-2.45-3.53-0.9-1.28-1.86-2.67-2.14-3.08-0.29-0.4-0.57-0.82-0.64-0.91s-0.19-0.23-0.27-0.31c-0.08-0.07-0.23-0.18-0.33-0.24-0.09-0.06-0.25-0.13-0.36-0.17-0.16-0.06-0.22-0.07-0.48-0.07-0.27 0-0.32 0.01-0.46 0.07-0.08 0.03-0.41 0.24-0.73 0.46s-1.35 0.94-2.29 1.6-1.86 1.3-2.03 1.42l-0.32 0.21-0.35-0.3c-0.19-0.16-0.51-0.43-0.7-0.58-0.2-0.16-0.5-0.39-0.67-0.52-0.18-0.14-0.49-0.37-0.71-0.52-0.21-0.16-0.62-0.43-0.91-0.62-0.28-0.19-0.75-0.48-1.04-0.66-0.29-0.17-0.75-0.43-1.02-0.58s-0.77-0.41-1.1-0.57-0.77-0.37-0.97-0.46-0.42-0.19-0.49-0.22c-0.1-0.04-0.12-0.06-0.11-0.11 0.01-0.03 0.06-0.27 0.11-0.55 0.05-0.27 0.22-1.32 0.39-2.32 0.17-1.01 0.35-2.08 0.4-2.38 0.09-0.49 0.1-0.59 0.1-0.94 0-0.26-0.01-0.45-0.04-0.55-0.02-0.09-0.07-0.23-0.11-0.31-0.05-0.09-0.15-0.22-0.24-0.3-0.1-0.09-0.23-0.18-0.34-0.24-0.1-0.05-0.26-0.1-0.35-0.12s-0.61-0.12-1.15-0.22-1.74-0.31-2.67-0.47-2.41-0.41-3.3-0.56c-0.89-0.16-2.05-0.36-2.59-0.46-0.73-0.13-1.02-0.17-1.18-0.17zm83.46 7.71c-15.43 0-27.98 12.87-27.98 28.77 0 15.91 12.55 28.77 27.98 28.77 15.42 0 27.97-12.86 27.97-28.77 0-15.9-12.55-28.77-27.97-28.77zm-199.39 0.8c-1.76 0-3.28 1.52-3.28 3.28v49.39c0 1.76 1.52 3.27 3.28 3.27 1.84 0 3.35-1.51 3.35-3.27v-42.2l21.02 29.65c1.2 1.76 3.76 1.76 4.96 0l15.66-22.06c1.44-2 0-4.71-2.4-4.79-0.96 0-2.07 0.64-2.63 1.44l-13.11 18.46-22.54-31.81c-0.64-0.8-1.6-1.36-2.71-1.36h-1.6zm53.7 0c-1.84 0-3.35 1.52-3.35 3.28v49.39c0 1.76 1.51 3.27 3.35 3.27 1.76 0 3.28-1.51 3.28-3.27v-49.39c0-1.76-1.52-3.28-3.28-3.28zm196.74 0c-1.76 0-3.27 1.52-3.27 3.28 0 1.84 1.51 3.35 3.27 3.35h19.98c5.44 0 9.91 4.4 9.91 9.83 0 5.44-4.47 9.91-9.91 9.91h-19.98c-1.76 0-3.19 1.36-3.27 3.12v0.16 23.02c0 1.76 1.51 3.27 3.27 3.27 1.84 0 3.36-1.51 3.36-3.27v-19.66h16.62c9.11 0 16.55-7.44 16.55-16.55 0-9.03-7.44-16.46-16.55-16.46h-19.98zm61.01 0c-1.76 0-3.28 1.52-3.28 3.28v49.39c0 1.76 1.52 3.27 3.28 3.27 1.84 0 3.35-1.51 3.35-3.27v-42.2l21.02 29.65c1.2 1.76 3.76 1.76 4.96 0l15.66-22.06c1.44-2 0-4.71-2.4-4.79-0.95 0-2.07 0.64-2.63 1.44l-13.11 18.46-22.54-31.81c-0.64-0.8-1.6-1.36-2.72-1.36h-1.59zm53.7 0c-1.83 0-3.35 1.52-3.35 3.28v49.39c0 1.76 1.52 3.27 3.35 3.27 1.76 0 3.28-1.51 3.28-3.27v-49.39c0-1.76-1.52-3.28-3.28-3.28zm46.12 0c-1.44 0-2.64 0.88-3.2 2.16l-20.14 49.07c-0.88 2.08 0.56 4.47 2.88 4.71h0.24 0.08 23.97c1.84 0 3.28-1.51 3.28-3.27 0-1.84-1.44-3.36-3.28-3.36h-18.94l14.95-36.44 0.96-2.4 0.95 2.4 16.87 40.92c0.48 1.28 1.76 2.15 3.2 2.15 2.39 0 4.07-2.47 3.11-4.71l-20.06-49.07c-0.56-1.28-1.84-2.16-3.2-2.16h-1.67zm47.72 0c-1.76 0-3.28 1.52-3.28 3.28v49.39c0 1.76 1.52 3.27 3.28 3.27 1.84 0 3.36-1.51 3.36-3.27v-49.39c0-1.76-1.52-3.28-3.36-3.28zm27.81 0c-0.96 0-1.91 0.48-2.47 1.28l-18.47 24.05c-0.88 1.2-0.8 2.88 0.16 4l21.58 25.5c0.64 0.72 1.52 1.11 2.4 1.11 2.72 0 4.15-3.11 2.4-5.19l-19.74-23.34 17.02-22.29c1.52-2.08 0.08-5.12-2.56-5.12h-0.32zm27.18 0c-1.75 0-3.27 1.52-3.27 3.28 0 1.84 1.52 3.35 3.27 3.35h28.46c1.83 0 3.35-1.51 3.35-3.35 0-1.76-1.52-3.28-3.35-3.28h-28.46zm53.58 0c-1.76 0-3.28 1.52-3.28 3.28 0 1.84 1.52 3.35 3.28 3.35h19.98c5.43 0 9.91 4.4 9.91 9.83 0 5.44-4.48 9.91-9.91 9.91h-19.98c-1.76 0-3.2 1.36-3.28 3.12v0.16 23.02c0 1.76 1.52 3.27 3.28 3.27 1.83 0 3.35-1.51 3.35-3.27v-19.66h16.63c9.11 0 16.54-7.44 16.54-16.55 0-9.03-7.43-16.46-16.54-16.46h-19.98zm-368.17 5.83c11.74 0 21.33 9.91 21.33 22.14s-9.59 22.14-21.33 22.14c-11.75 0-21.34-9.91-21.34-22.14s9.59-22.14 21.34-22.14zm-84.28 6.43c0.43 0 0.95 0.01 1.15 0.02s0.57 0.05 0.82 0.08 0.65 0.09 0.89 0.13c0.25 0.04 0.65 0.12 0.9 0.17 0.25 0.06 0.61 0.15 0.8 0.21 0.2 0.05 0.5 0.14 0.67 0.2 0.18 0.05 0.45 0.15 0.62 0.21s0.5 0.2 0.75 0.3c0.25 0.11 0.67 0.3 0.93 0.44 0.27 0.13 0.66 0.34 0.87 0.47 0.2 0.12 0.57 0.34 0.8 0.5 0.24 0.16 0.58 0.4 0.76 0.53 0.18 0.14 0.49 0.38 0.68 0.54s0.52 0.46 0.74 0.65c0.21 0.2 0.53 0.52 0.71 0.72 0.18 0.19 0.46 0.51 0.63 0.71 0.16 0.19 0.4 0.5 0.54 0.68s0.39 0.54 0.56 0.8c0.17 0.25 0.41 0.65 0.55 0.89 0.13 0.23 0.33 0.6 0.44 0.82 0.11 0.21 0.26 0.54 0.34 0.72s0.21 0.48 0.28 0.68c0.08 0.19 0.2 0.51 0.27 0.71 0.06 0.2 0.17 0.54 0.23 0.76s0.15 0.57 0.2 0.78c0.05 0.22 0.12 0.54 0.15 0.72 0.04 0.18 0.09 0.49 0.12 0.68 0.03 0.2 0.07 0.53 0.09 0.75 0.02 0.21 0.05 0.66 0.06 0.99 0.01 0.36 0.01 0.83 0 1.19-0.01 0.33-0.03 0.72-0.05 0.88-0.01 0.15-0.04 0.42-0.07 0.59-0.02 0.18-0.07 0.52-0.11 0.76s-0.11 0.62-0.16 0.83c-0.05 0.22-0.14 0.55-0.19 0.75-0.06 0.2-0.16 0.54-0.23 0.76s-0.18 0.54-0.25 0.71c-0.06 0.17-0.19 0.48-0.27 0.67-0.09 0.2-0.25 0.56-0.37 0.8s-0.32 0.6-0.44 0.81-0.3 0.52-0.41 0.69-0.32 0.48-0.46 0.68c-0.15 0.2-0.37 0.5-0.5 0.67-0.13 0.16-0.37 0.45-0.54 0.64-0.16 0.19-0.48 0.52-0.7 0.75-0.22 0.22-0.54 0.52-0.71 0.67-0.16 0.15-0.42 0.36-0.56 0.48-0.15 0.12-0.39 0.31-0.54 0.42-0.16 0.12-0.46 0.33-0.68 0.48-0.23 0.15-0.52 0.34-0.66 0.43-0.14 0.08-0.42 0.24-0.61 0.34-0.19 0.11-0.5 0.27-0.69 0.36s-0.48 0.23-0.65 0.3c-0.17 0.08-0.45 0.19-0.61 0.25-0.16 0.07-0.51 0.19-0.77 0.28s-0.65 0.2-0.85 0.26c-0.21 0.06-0.56 0.14-0.77 0.19-0.22 0.05-0.59 0.12-0.84 0.16-0.24 0.04-0.65 0.1-0.9 0.13-0.26 0.03-0.7 0.06-0.99 0.08-0.31 0.02-0.78 0.02-1.17 0.01-0.36-0.01-0.84-0.03-1.06-0.05-0.23-0.02-0.56-0.06-0.74-0.08-0.17-0.02-0.54-0.08-0.81-0.13s-0.67-0.12-0.89-0.17c-0.23-0.05-0.62-0.16-0.87-0.23-0.26-0.07-0.63-0.19-0.84-0.26-0.2-0.07-0.5-0.18-0.68-0.25s-0.47-0.19-0.64-0.27c-0.18-0.08-0.48-0.22-0.68-0.32-0.19-0.1-0.49-0.25-0.66-0.35-0.18-0.1-0.44-0.25-0.58-0.34-0.15-0.09-0.41-0.26-0.57-0.37-0.17-0.11-0.48-0.33-0.69-0.48-0.2-0.16-0.5-0.39-0.65-0.52s-0.46-0.4-0.69-0.61c-0.22-0.21-0.57-0.55-0.76-0.76-0.2-0.21-0.48-0.52-0.62-0.7-0.15-0.17-0.4-0.49-0.56-0.71-0.17-0.21-0.41-0.56-0.54-0.75-0.13-0.2-0.32-0.51-0.43-0.68-0.1-0.17-0.28-0.5-0.4-0.72s-0.3-0.58-0.4-0.79c-0.09-0.21-0.25-0.58-0.35-0.81-0.09-0.24-0.23-0.61-0.3-0.81s-0.18-0.55-0.24-0.78c-0.07-0.23-0.17-0.6-0.22-0.83s-0.13-0.61-0.17-0.86c-0.05-0.24-0.1-0.61-0.13-0.83-0.03-0.21-0.06-0.56-0.08-0.77-0.02-0.22-0.03-0.74-0.03-1.27 0-0.52 0.01-1.04 0.03-1.25 0.02-0.19 0.05-0.53 0.08-0.76 0.03-0.22 0.08-0.57 0.11-0.78 0.04-0.2 0.11-0.55 0.16-0.77 0.04-0.21 0.13-0.56 0.18-0.76 0.06-0.21 0.16-0.54 0.22-0.73 0.07-0.2 0.19-0.55 0.28-0.78s0.23-0.59 0.32-0.78c0.09-0.2 0.22-0.48 0.29-0.62 0.08-0.15 0.2-0.39 0.29-0.55 0.08-0.15 0.22-0.4 0.31-0.55s0.28-0.45 0.42-0.66c0.14-0.2 0.38-0.54 0.53-0.75 0.16-0.21 0.41-0.52 0.55-0.7 0.15-0.17 0.43-0.48 0.62-0.69s0.51-0.53 0.7-0.71c0.19-0.17 0.49-0.44 0.67-0.59 0.17-0.15 0.5-0.41 0.73-0.58s0.58-0.43 0.79-0.57 0.53-0.34 0.72-0.45 0.5-0.29 0.7-0.4c0.2-0.1 0.53-0.27 0.74-0.37 0.2-0.09 0.54-0.24 0.73-0.32 0.2-0.08 0.52-0.21 0.71-0.28s0.53-0.18 0.76-0.25c0.22-0.07 0.61-0.18 0.86-0.24s0.63-0.15 0.84-0.19c0.22-0.04 0.59-0.11 0.82-0.14 0.24-0.03 0.62-0.08 0.85-0.1s0.47-0.04 0.55-0.05c0.08 0 0.49-0.01 0.92-0.01zm398.87 11.32c-1.75 0-3.27 1.52-3.27 3.35v25.74c0 1.76 1.52 3.27 3.27 3.27h28.46c1.83 0 3.35-1.51 3.35-3.27 0-1.84-1.52-3.36-3.35-3.36h-25.1v-19.1h20.78c1.84 0 3.36-1.44 3.36-3.28 0-1.83-1.52-3.35-3.36-3.35h-24.14zm-238.6 14.14c-2.56 0-4.08 2.72-2.8 4.8l6.95 11.83c0.56 0.95 1.6 1.59 2.72 1.59 2.56 0 4.08-2.71 2.8-4.87l-6.95-11.75c-0.56-1.04-1.6-1.6-2.72-1.6zm317.11 0c-2.56 0-4.07 2.72-2.8 4.8l6.96 11.83c0.56 0.95 1.6 1.59 2.71 1.59 2.56 0 4.08-2.71 2.8-4.87l-6.95-11.75c-0.56-1.04-1.6-1.6-2.72-1.6zm-409.71 62.69c-2.48 0-4.5 0.57-6.05 1.71s-2.32 2.62-2.32 4.46c0 1.16 0.25 2.14 0.76 2.95s1.31 1.52 2.39 2.13c1.1 0.62 2.74 1.22 4.93 1.82 2.18 0.6 3.81 1.19 4.89 1.77 1.09 0.57 1.88 1.23 2.38 1.98 0.5 0.74 0.76 1.65 0.76 2.72 0 1.62-0.72 2.94-2.15 3.96-1.43 1-3.26 1.51-5.47 1.51-2.48 0-4.5-0.58-6.05-1.72-1.55-1.15-2.32-2.75-2.32-4.82h-0.94c0 1.52 0.36 2.85 1.09 3.97 0.74 1.12 1.84 1.99 3.3 2.6 1.46 0.6 3.1 0.9 4.92 0.9 1.65 0 3.13-0.26 4.45-0.8 1.31-0.53 2.33-1.28 3.05-2.25 0.71-0.98 1.07-2.11 1.07-3.38 0-2-0.81-3.6-2.43-4.79-1.27-0.94-3.27-1.76-6.01-2.46-2.74-0.72-4.71-1.54-5.9-2.46-1.19-0.93-1.79-2.15-1.79-3.67 0-1.49 0.69-2.72 2.05-3.71 1.38-0.99 3.17-1.49 5.39-1.49 2.21 0 4.01 0.62 5.4 1.86 1.38 1.22 2.08 2.78 2.08 4.66h0.93c0-1.43-0.35-2.71-1.05-3.85-0.71-1.14-1.71-2.03-3-2.65-1.29-0.64-2.74-0.95-4.36-0.95zm156.96 0.34v25.26h0.94v-23.75l10.43 23.75h0.74l10.48-23.87v23.87h0.93v-25.26h-1.37l-10.42 23.88-10.39-23.88h-1.34zm-95.56 1.43v5.06h-3.47v0.95h3.47v13.44c0.01 1.64 0.31 2.83 0.9 3.59s1.57 1.13 2.93 1.13c0.93 0 1.58-0.07 1.96-0.21l-0.15-0.88c-0.73 0.1-1.35 0.16-1.86 0.16-1.02 0-1.75-0.32-2.18-0.96-0.43-0.63-0.65-1.62-0.65-2.95v-13.32h4.27v-0.95h-4.27v-5.06h-0.95zm-16.39 4.71c-1.86 0-3.38 0.45-4.54 1.34s-1.74 2.02-1.74 3.4c0 1.36 0.46 2.44 1.37 3.22 0.92 0.78 2.54 1.41 4.88 1.91 3.88 0.82 5.82 2.37 5.82 4.65 0 1.11-0.52 2.06-1.57 2.84s-2.4 1.17-4.08 1.17c-1.83 0-3.28-0.37-4.35-1.1-1.07-0.74-1.65-1.77-1.74-3.08h-0.93c0 1.5 0.64 2.73 1.92 3.69 1.29 0.95 2.99 1.42 5.1 1.42 1.96 0 3.55-0.45 4.77-1.35 1.21-0.9 1.82-2.09 1.82-3.57 0-0.96-0.2-1.77-0.61-2.43-0.4-0.67-1.06-1.25-1.96-1.74-0.9-0.48-2.12-0.9-3.67-1.26s-2.73-0.73-3.54-1.11c-0.81-0.39-1.4-0.83-1.75-1.3-0.36-0.49-0.54-1.15-0.54-2 0-1.07 0.48-1.97 1.44-2.69 0.96-0.71 2.26-1.07 3.9-1.07 1.71 0 3.1 0.42 4.16 1.27 1.07 0.84 1.6 1.89 1.6 3.15h0.95c0-1.64-0.61-2.94-1.84-3.9-1.22-0.97-2.85-1.46-4.87-1.46zm36.87 0c-1.53 0-2.81 0.38-3.83 1.15-1.02 0.76-1.78 1.8-2.29 3.1v-3.9h-0.93v18.77h0.93v-12.3c0.34-1.86 1.04-3.31 2.12-4.34 1.07-1.04 2.41-1.56 4-1.56l1.22 0.11 0.1-0.84c-0.33-0.12-0.77-0.19-1.32-0.19zm38.3 0c-1.44 0-2.74 0.42-3.92 1.25s-2.09 2.01-2.72 3.54v-4.44h-0.96v18.77h0.96v-11.87c0.25-1.32 0.76-2.52 1.54-3.6 1.31-1.82 2.99-2.73 5.05-2.73 1.78 0 3.07 0.46 3.88 1.39 0.82 0.91 1.24 2.31 1.25 4.2v12.61h0.94v-12.49c0.07-0.96 0.48-1.96 1.25-2.98 1.33-1.79 3.13-2.69 5.41-2.73 1.77-0.02 3.06 0.47 3.88 1.46 0.83 0.98 1.25 2.5 1.25 4.56v12.18h0.94v-12.25c-0.01-2.29-0.52-4.01-1.51-5.15-0.98-1.15-2.49-1.72-4.51-1.72-1.55 0-2.95 0.41-4.2 1.22-1.25 0.8-2.15 1.87-2.71 3.22-0.31-1.57-0.97-2.7-1.97-3.4-1-0.69-2.28-1.04-3.85-1.04zm76.87 0c-1.59 0-3.01 0.4-4.27 1.2-1.25 0.8-2.22 1.91-2.91 3.35-0.69 1.42-1.03 3.03-1.03 4.82v0.83c0.01 1.77 0.37 3.36 1.06 4.79 0.69 1.41 1.66 2.51 2.91 3.29 1.26 0.79 2.69 1.18 4.27 1.18s3-0.4 4.25-1.19c1.26-0.8 2.23-1.91 2.91-3.33 0.69-1.43 1.03-3.04 1.03-4.84v-0.84c-0.02-1.78-0.37-3.38-1.08-4.8-0.69-1.42-1.66-2.52-2.91-3.3-1.25-0.77-2.66-1.16-4.23-1.16zm22.89 0c-1.58 0-3.01 0.4-4.27 1.2-1.25 0.8-2.22 1.91-2.91 3.35-0.68 1.42-1.02 3.03-1.02 4.82v0.83c0.01 1.77 0.36 3.36 1.05 4.79 0.7 1.41 1.67 2.51 2.92 3.29 1.26 0.79 2.68 1.18 4.26 1.18 1.59 0 3-0.4 4.25-1.19 1.26-0.8 2.24-1.91 2.92-3.33 0.68-1.43 1.02-3.04 1.02-4.84v-0.84c-0.01-1.78-0.37-3.38-1.08-4.8-0.69-1.42-1.66-2.52-2.91-3.3-1.25-0.77-2.66-1.16-4.23-1.16zm23.17 0c-1.54 0-2.81 0.38-3.83 1.15-1.02 0.76-1.78 1.8-2.29 3.1v-3.9h-0.94v18.77h0.94v-12.3c0.33-1.86 1.04-3.31 2.11-4.34 1.08-1.04 2.41-1.56 4.01-1.56l1.22 0.11 0.1-0.84c-0.34-0.12-0.78-0.19-1.32-0.19zm-226.7 0.35v12.09c0.02 2.29 0.54 4.03 1.56 5.24 1.03 1.19 2.57 1.78 4.61 1.78 1.64 0 2.98-0.3 4.05-0.9 1.06-0.61 1.87-1.44 2.42-2.48v3.04h0.96v-18.77h-0.96v13.2c-0.3 1.63-1.01 2.87-2.13 3.71s-2.58 1.27-4.37 1.27c-1.69 0-2.97-0.51-3.85-1.53-0.88-1.03-1.33-2.54-1.35-4.53v-12.12h-0.94zm73.54 0v12.09c0.02 2.29 0.54 4.03 1.56 5.24 1.03 1.19 2.57 1.78 4.61 1.78 1.63 0 2.98-0.3 4.04-0.9 1.07-0.61 1.88-1.44 2.43-2.48v3.04h0.96v-18.77h-0.96v13.2c-0.3 1.63-1.01 2.87-2.13 3.71s-2.58 1.27-4.37 1.27c-1.69 0-2.97-0.51-3.85-1.53-0.88-1.03-1.33-2.54-1.36-4.53v-12.12h-0.93zm107.1 0.59c1.39 0 2.64 0.37 3.74 1.11 1.11 0.73 1.98 1.75 2.6 3.05 0.63 1.31 0.94 2.73 0.94 4.27v0.54c0 2.53-0.68 4.6-2.03 6.21-1.34 1.6-3.08 2.41-5.22 2.41-1.42 0-2.69-0.37-3.8-1.1-1.1-0.73-1.96-1.74-2.58-3.03-0.61-1.31-0.92-2.74-0.92-4.3v-0.56c0-2.47 0.67-4.52 2.03-6.15 1.35-1.63 3.1-2.45 5.24-2.45zm22.89 0c1.4 0 2.65 0.37 3.75 1.11 1.11 0.73 1.97 1.75 2.6 3.05 0.62 1.31 0.93 2.73 0.93 4.27v0.54c0 2.53-0.67 4.6-2.03 6.21-1.34 1.6-3.08 2.41-5.22 2.41-1.42 0-2.68-0.37-3.79-1.1-1.1-0.73-1.96-1.74-2.59-3.03-0.61-1.31-0.92-2.74-0.92-4.3v-0.56c0-2.47 0.68-4.52 2.03-6.15s3.1-2.45 5.24-2.45z" fill="none" stroke="#1f2062" stroke-width="4" stroke-linejoin="round" stroke-linecap="round" />

<g id="logo-fade">

 
 <g id="logo-group" transform="translate(0 3.8567) scale(1)">
  <path id="path375934" style="font-variant-ligatures:none" d="m402.12 441.18q0-1.613-0.76312-2.723-0.74579-1.1273-2.3761-1.9772-1.613-0.86718-4.8909-1.7691-3.278-0.90187-4.9256-1.8211-1.6303-0.91922-2.3934-2.1333-0.76312-1.2141-0.76312-2.9484 0-2.7577 2.3241-4.4573 2.3241-1.717 6.053-1.717 2.4281 0 4.3533 0.95391 1.9425 0.93656 3.0005 2.6536 1.058 1.6997 1.058 3.8503h-0.93657q0-2.827-2.0812-4.6655-2.0812-1.8558-5.3939-1.8558-3.33 0-5.3939 1.4916-2.0466 1.4742-2.0466 3.7116 0 2.272 1.7864 3.6595t5.8969 2.4628q4.1105 1.058 6.0183 2.4628 2.4281 1.7864 2.4281 4.7869 0 1.9078-1.0753 3.382-1.0753 1.4569-3.0525 2.2547-1.9772 0.79782-4.44 0.79782-2.7403 0-4.9256-0.90188-2.1853-0.91922-3.2953-2.6016-1.0927-1.6824-1.0927-3.9717h0.93657q0 3.1045 2.3241 4.8216 2.3241 1.717 6.053 1.717 3.3127 0 5.4633-1.5089 2.1506-1.5262 2.1506-3.9544z" stroke-miterlimit="2" stroke-width="0"/>
  <path id="path375936" style="font-variant-ligatures:none" d="m423.43 447.23v-3.0352q-0.8325 1.5609-2.4281 2.4802-1.5956 0.90188-4.0411 0.90188-3.0698 0-4.6134-1.7864-1.5262-1.8038-1.5609-5.2378v-12.089h0.93656v12.123q0.0346 2.9831 1.3528 4.5267 1.3181 1.5262 3.8503 1.5262 2.6883 0 4.3706-1.2661t2.1333-3.7116v-13.199h0.95391v18.766z" stroke-miterlimit="2" stroke-width="0"/>
  <path id="path375938" style="font-variant-ligatures:none" d="m445.18 442.63q0-3.4167-5.8275-4.6481-3.5034-0.74578-4.8736-1.9078-1.3702-1.1794-1.3702-3.2259 0-2.0639 1.7344-3.3994 1.7517-1.3355 4.5441-1.3355 3.0352 0 4.8736 1.4569 1.8384 1.4395 1.8384 3.9024h-0.95391q0-1.8905-1.5956-3.1566t-4.1625-1.2661q-2.4628 0-3.9023 1.0753t-1.4395 2.6883q0 1.2661 0.53766 1.9945 0.53766 0.71109 1.7517 1.3008 1.2141 0.57234 3.5381 1.11 2.3241 0.53765 3.6769 1.2661 1.3528 0.72844 1.9598 1.7344 0.60702 0.98859 0.60702 2.4281 0 2.22-1.8211 3.5728t-4.7695 1.3528q-3.1566 0-5.0991-1.4222-1.9252-1.4395-1.9252-3.6942h0.93657q0.13875 1.9772 1.7344 3.0872 1.613 1.0926 4.3533 1.0926 2.5148 0 4.0758-1.162 1.5783-1.1794 1.5783-2.8444z" stroke-miterlimit="2" stroke-width="0"/>
  <path id="path375940" style="font-variant-ligatures:none" d="m456.73 423.4v5.0644h4.2666v0.95391h-4.2666v13.32q0 1.9945 0.64172 2.9484 0.65906 0.9539 2.1853 0.9539 0.76313 0 1.8558-0.15609l0.1561 0.88453q-0.57235 0.20813-1.9598 0.20813-2.0466 0-2.9311-1.1274-0.88453-1.1447-0.90187-3.5902v-13.441h-3.4688v-0.95391h3.4688v-5.0644z" stroke-miterlimit="2" stroke-width="0"/>
  <path id="path375942" style="font-variant-ligatures:none" d="m477.48 429.14-1.2141-0.10406q-2.3934 0-4.0064 1.5609-1.613 1.5436-2.1159 4.3359v12.297h-0.93656v-18.766h0.93656v3.9024q0.76313-1.9598 2.2894-3.1045 1.5262-1.1447 3.833-1.1447 0.81516 0 1.3181 0.19078z" stroke-miterlimit="2" stroke-width="0"/>
  <path id="path375944" style="font-variant-ligatures:none" d="m496.97 447.23v-3.0352q-0.8325 1.5609-2.4281 2.4802-1.5956 0.90188-4.0411 0.90188-3.0698 0-4.6134-1.7864-1.5262-1.8038-1.5609-5.2378v-12.089h0.93656v12.123q0.0346 2.9831 1.3528 4.5267 1.3181 1.5262 3.8503 1.5262 2.6883 0 4.3706-1.2661t2.1333-3.7116v-13.199h0.95391v18.766z" stroke-miterlimit="2" stroke-width="0"/>
  <path id="path375946" style="font-variant-ligatures:none" d="m520.58 447.23h-0.93657v-12.61q-0.0173-2.827-1.2488-4.1972-1.2141-1.3875-3.885-1.3875-3.0872 0-5.047 2.723-1.162 1.6303-1.5436 3.6075v11.863h-0.95391v-18.766h0.95391v4.44q0.9539-2.2894 2.723-3.5381 1.7691-1.2488 3.9197-1.2488 2.3588 0 3.8503 1.0406 1.5089 1.0406 1.9772 3.3994 0.8325-2.0292 2.7056-3.2259 1.8731-1.2141 4.1972-1.2141 3.0352 0 4.5094 1.717 1.4916 1.717 1.5089 5.1511v12.245h-0.93656v-12.17q0-3.0872-1.2488-4.5614-1.2314-1.4916-3.885-1.4569-3.4167 0.052-5.4112 2.723-1.1447 1.5436-1.2488 2.9831z" stroke-miterlimit="2" stroke-width="0"/>
  <path id="path375948" style="font-variant-ligatures:none" d="m552.68 421.98 10.389 23.882 10.424-23.882h1.3702v25.252h-0.93656v-23.865l-10.476 23.865h-0.74579l-10.424-23.744v23.744h-0.93656v-25.252z" stroke-miterlimit="2" stroke-width="0"/>
  <path id="path375950" style="font-variant-ligatures:none" d="m583.22 437.48q0-2.6883 1.0233-4.8216 1.0406-2.1506 2.9138-3.3473 1.8905-1.1967 4.2666-1.1967 2.3588 0 4.2319 1.162t2.9138 3.2953q1.058 2.1333 1.0753 4.8042v0.8325q0 2.7056-1.0233 4.8389t-2.9138 3.33q-1.8731 1.1967-4.2492 1.1967t-4.2666-1.1794q-1.8731-1.1794-2.9138-3.2953-1.0406-2.1333-1.058-4.7869zm0.93656 0.72844q0 2.3414 0.91922 4.3012 0.93656 1.9425 2.5842 3.0352 1.665 1.0926 3.7983 1.0926 3.2086 0 5.2205-2.4108 2.0292-2.4108 2.0292-6.2091v-0.53766q0-2.3067-0.93657-4.2666-0.93656-1.9598-2.6016-3.0525-1.6476-1.11-3.7462-1.11-3.2086 0-5.2378 2.4455t-2.0292 6.157z" stroke-miterlimit="2" stroke-width="0"/>
  <path id="path375952" style="font-variant-ligatures:none" d="m606.12 437.48q0-2.6883 1.0233-4.8216 1.0406-2.1506 2.9138-3.3473 1.8905-1.1967 4.2666-1.1967 2.3588 0 4.2319 1.162t2.9138 3.2953q1.058 2.1333 1.0753 4.8042v0.8325q0 2.7056-1.0233 4.8389t-2.9138 3.33q-1.8731 1.1967-4.2492 1.1967t-4.2666-1.1794q-1.8731-1.1794-2.9138-3.2953-1.0406-2.1333-1.058-4.7869zm0.93656 0.72844q0 2.3414 0.91922 4.3012 0.93656 1.9425 2.5842 3.0352 1.665 1.0926 3.7983 1.0926 3.2086 0 5.2205-2.4108 2.0292-2.4108 2.0292-6.2091v-0.53766q0-2.3067-0.93657-4.2666-0.93656-1.9598-2.6016-3.0525-1.6476-1.11-3.7462-1.11-3.2086 0-5.2378 2.4455t-2.0292 6.157z" stroke-miterlimit="2" stroke-width="0"/>
  <path id="path375954" style="font-variant-ligatures:none" d="m638.7 429.14-1.2141-0.10406q-2.3934 0-4.0064 1.5609-1.613 1.5436-2.1159 4.3359v12.297h-0.93656v-18.766h0.93656v3.9024q0.76313-1.9598 2.2894-3.1045 1.5262-1.1447 3.833-1.1447 0.81516 0 1.3181 0.19078z" stroke-miterlimit="2" stroke-width="0"/>
  <path id="path375957" style="font-variant-ligatures:normal" d="m254.19 334.49c-0.95905 0-2.0779 0.63936-2.6374 1.4386l-13.1 18.46-22.54-31.81c-0.63937-0.7992-1.5984-1.3586-2.7173-1.3586h-1.5984c-1.7582 0-3.2767 1.5185-3.2767 3.2767v49.391c0 1.7582 1.5185 3.2767 3.2767 3.2767 1.8382 0 3.3566-1.5185 3.3566-3.2767v-42.198l21.019 29.65c1.1988 1.7582 3.7562 1.7582 4.955 0l15.664-22.058c1.4386-1.998 0-4.7153-2.3976-4.7952zm11.109-13.267c-1.8382 0-3.3566 1.5185-3.3566 3.2767v49.391c0 1.7582 1.5185 3.2767 3.3566 3.2767 1.7582 0 3.2767-1.5185 3.2767-3.2767v-49.391c0-1.7582-1.5185-3.2767-3.2767-3.2767z" stroke-miterlimit="2" stroke-width="0"/>
  <path id="path375961" style="font-variant-ligatures:normal" d="m410.99 320.42c-15.425 0-27.972 12.867-27.972 28.771s12.547 28.771 27.972 28.771 27.972-12.867 27.972-28.771-12.547-28.771-27.972-28.771zm0 50.909c-11.748 0-21.339-9.9101-21.339-22.138s9.5904-22.138 21.339-22.138c11.748 0 21.339 9.9101 21.339 22.138s-9.5904 22.138-21.339 22.138z" stroke-miterlimit="2" stroke-width="0"/>
  <path id="path375963" style="font-variant-ligatures:normal" d="m498.57 337.69c0-9.031-7.4326-16.464-16.543-16.464h-19.98c-1.7582 0-3.2767 1.5185-3.2767 3.2767 0 1.8382 1.5185 3.3566 3.2767 3.3566h19.98c5.4346 0 9.9101 4.3956 9.9101 9.8302s-4.4755 9.9101-9.9101 9.9101h-19.98c-1.7582 0-3.1968 1.3586-3.2767 3.1169v23.177c0 1.7582 1.5185 3.2767 3.2767 3.2767 1.8382 0 3.3566-1.5185 3.3566-3.2767v-19.66h16.623c9.1109 0 16.543-7.4326 16.543-16.543zm-8.8711 22.857c-0.55944-1.039-1.5984-1.5984-2.7173-1.5984-2.5574 0-4.0759 2.7173-2.7972 4.7952l6.953 11.828c0.55944 0.95904 1.5984 1.5984 2.7173 1.5984 2.5574 0 4.0759-2.7173 2.7972-4.8751z" stroke-miterlimit="2" stroke-width="0"/>
  <path id="path375965" style="font-variant-ligatures:normal" d="m565.64 334.49c-0.95902 0-2.0779 0.63936-2.6374 1.4386l-13.107 18.462-22.537-31.808c-0.63938-0.7992-1.5984-1.3586-2.7173-1.3586h-1.5984c-1.7582 0-3.2767 1.5185-3.2767 3.2767v49.391c0 1.7582 1.5185 3.2767 3.2767 3.2767 1.8382 0 3.3566-1.5185 3.3566-3.2767v-42.198l21.019 29.65c1.1988 1.7582 3.7562 1.7582 4.955 0l15.664-22.058c1.4385-1.998 0-4.7153-2.3976-4.7952zm11.109-13.267c-1.8381 0-3.3566 1.5185-3.3566 3.2767v49.391c0 1.7582 1.5185 3.2767 3.3566 3.2767 1.7582 0 3.2767-1.5185 3.2767-3.2767v-49.391c0-1.7582-1.5185-3.2767-3.2767-3.2767z" stroke-miterlimit="2" stroke-width="0"/>
  <path id="path375967" style="font-variant-ligatures:normal" d="m647.8 372.45-20.06-49.071c-0.55944-1.2787-1.8382-2.1578-3.1968-2.1578h-1.6783c-1.4386 0-2.6374 0.87912-3.1968 2.1578l-20.14 49.071c-0.87912 2.0779 0.55944 4.4755 2.8771 4.7153h24.296c1.8382 0 3.2767-1.5185 3.2767-3.2767 0-1.8382-1.4386-3.3566-3.2767-3.3566h-18.941l14.945-36.444 0.95904-2.3976 0.95904 2.3976 16.863 40.919c0.47952 1.2787 1.7582 2.1578 3.1968 2.1578 2.3976 0 4.0759-2.4775 3.1169-4.7153z" stroke-miterlimit="2" stroke-width="0"/>
  <path id="path375969" style="font-variant-ligatures:normal" d="m670.59 321.22c-1.7582 0-3.2767 1.5185-3.2767 3.2767v49.391c0 1.7582 1.5185 3.2767 3.2767 3.2767 1.8382 0 3.3566-1.5185 3.3566-3.2767v-49.391c0-1.7582-1.5185-3.2767-3.3566-3.2767zm33.407 50.749-19.74-23.337 17.023-22.298c1.5185-2.0779 0.0799-5.1149-2.5574-5.1149h-0.31968c-0.95904 0-1.9181 0.47952-2.4775 1.2787l-18.462 24.056c-0.87912 1.1988-0.7992 2.8771 0.15984 3.996l21.578 25.494c0.63936 0.71928 1.5185 1.1189 2.3976 1.1189 2.7173 0 4.1558-3.1169 2.3976-5.1948z" stroke-miterlimit="2" stroke-width="0"/>
  <path id="path375971" style="font-variant-ligatures:normal" d="m725.58 327.86h28.452c1.8382 0 3.3566-1.5185 3.3566-3.3566 0-1.7582-1.5185-3.2767-3.3566-3.2767h-28.452c-1.7582 0-3.2767 1.5185-3.2767 3.2767 0 1.8382 1.5185 3.3566 3.2767 3.3566zm28.452 42.677h-25.095v-19.101h20.779c1.8382 0 3.3566-1.4386 3.3566-3.2767 0-1.8382-1.5185-3.3566-3.3566-3.3566h-24.136c-1.7582 0-3.2767 1.5185-3.2767 3.3566v25.734c0 1.7582 1.5185 3.2767 3.2767 3.2767h28.452c1.8382 0 3.3566-1.5185 3.3566-3.2767 0-1.8382-1.5185-3.3566-3.3566-3.3566z" stroke-miterlimit="2" stroke-width="0"/>
  <path id="path375973" style="font-variant-ligatures:normal" d="m815.68 337.69c0-9.031-7.4326-16.464-16.543-16.464h-19.98c-1.7582 0-3.2767 1.5185-3.2767 3.2767 0 1.8382 1.5185 3.3566 3.2767 3.3566h19.98c5.4346 0 9.9101 4.3956 9.9101 9.8302s-4.4755 9.9101-9.9101 9.9101h-19.98c-1.7582 0-3.1968 1.3586-3.2767 3.1169v23.177c0 1.7582 1.5185 3.2767 3.2767 3.2767 1.8382 0 3.3566-1.5185 3.3566-3.2767v-19.66h16.623c9.1109 0 16.543-7.4326 16.543-16.543zm-8.8711 22.857c-0.55944-1.039-1.5984-1.5984-2.7173-1.5984-2.5574 0-4.0759 2.7173-2.7972 4.7952l6.953 11.828c0.55944 0.95904 1.5984 1.5984 2.7173 1.5984 2.5574 0 4.0759-2.7173 2.7972-4.8751z" stroke-miterlimit="2" stroke-width="0"/>
  <path id="icon" stroke-width=".45336" fill="#d50000" d="m327.53 312.71c-0.11771 0.002-0.28912 0.0174-0.38088 0.0356-0.0915 0.0184-0.22761 0.0592-0.30248 0.0907-0.0746 0.0318-0.18124 0.0854-0.23669 0.11948-0.0555 0.0338-0.1452 0.0966-0.19914 0.13889-0.0542 0.0423-0.14696 0.14318-0.20644 0.22384-0.0595 0.0807-0.13234 0.21149-0.16184 0.29064-0.0297 0.0792-0.0812 0.2914-0.11443 0.47186-0.0333 0.18049-0.27073 1.5079-0.52758 2.9497-0.25712 1.4418-0.47921 2.68-0.49354 2.7516l-0.0265 0.13032-0.21905 0.0159c-0.12074 0.009-0.4744 0.0386-0.78645 0.0663-0.31181 0.0275-0.78822 0.0784-1.0587 0.11293-0.27022 0.0345-0.73531 0.10234-1.0335 0.15074-0.29795 0.0484-0.68943 0.11671-0.86964 0.15149-0.18023 0.035-0.50414 0.10235-0.71967 0.14948-0.21578 0.0469-0.62415 0.14368-0.90746 0.21452-0.28358 0.0711-0.61757 0.15779-0.74234 0.19283-0.12477 0.0353-0.46732 0.13662-0.76124 0.2256-0.29392 0.089-0.74764 0.23519-1.0083 0.32492-0.26064 0.0895-0.66599 0.23518-0.90088 0.32366l-0.42701 0.16082-0.17544-0.24199c-0.0979-0.13329-0.37176-0.52001-0.61023-0.85958-0.23847-0.34002-0.73717-1.0545-1.1089-1.5881-0.3713-0.53407-0.87726-1.2549-1.1243-1.6022-0.384-0.54087-0.4919-0.6737-0.74987-0.92396-0.24345-0.2362-0.33685-0.30919-0.48646-0.38037-0.102-0.0485-0.24572-0.10065-0.31917-0.11561-0.0734-0.0154-0.18724-0.0281-0.25297-0.0281-0.0658 0-0.18452 0.0169-0.26392 0.0376s-0.20367 0.0678-0.27627 0.10435c-0.0726 0.0368-0.38693 0.243-0.699 0.45826-0.31181 0.21527-0.84521 0.5843-1.1847 0.82023-0.33954 0.23569-1.6611 1.1565-2.9366 2.0458-1.2755 0.88954-2.7274 1.8994-3.2265 2.2444-0.4991 0.34509-0.96267 0.67883-1.0304 0.74162-0.0675 0.0628-0.17115 0.18224-0.23014 0.26543-0.059 0.0832-0.13612 0.20896-0.17141 0.27954-0.0355 0.0703-0.0905 0.20645-0.12225 0.30249-0.0441 0.13309-0.0577 0.2309-0.0575 0.41365 0 0.15628 0.0156 0.29064 0.0449 0.38693 0.0308 0.10133 0.13637 0.28257 0.33752 0.57976 0.16107 0.2377 0.46859 0.68739 0.68335 0.99944 0.21502 0.31181 0.6236 0.90165 0.90823 1.3108 0.28458 0.40885 0.73227 1.0441 0.99518 1.4116 0.26265 0.36727 0.56666 0.78872 0.67556 0.9362 0.10889 0.14746 0.19787 0.28055 0.19787 0.29593 0 0.0154-0.0766 0.11595-0.17065 0.22333-0.0938 0.10764-0.26165 0.30325-0.37306 0.43508-0.11167 0.13158-0.3403 0.41188-0.50845 0.62261-0.16813 0.21073-0.41062 0.52204-0.53869 0.69192-0.1283 0.16989-0.36298 0.49077-0.52128 0.71337-0.15855 0.22258-0.41541 0.5974-0.57119 0.8331-0.15553 0.23569-0.38491 0.59287-0.50967 0.79402-0.12478 0.2009-0.31232 0.51299-0.41718 0.6932-0.10461 0.18023-0.30072 0.53188-0.43558 0.78142-0.13486 0.24955-0.32391 0.6105-0.41995 0.80182-0.0958 0.19157-0.28837 0.59993-0.42776 0.90745-0.13965 0.30778-0.25787 0.56362-0.26266 0.56893-0.005 0.005-0.23367-0.0328-0.50818-0.0842-0.27425-0.0514-0.80463-0.14948-1.1782-0.21804-0.37356-0.0686-1.0372-0.18628-1.4746-0.26165-0.43734-0.0754-1.0844-0.1825-1.4381-0.23796-0.3534-0.0554-0.84117-0.13107-1.0839-0.16788-0.34257-0.0522-0.49181-0.0638-0.66826-0.0524-0.12478 0.008-0.30627 0.0391-0.40332 0.0688-0.0968 0.0295-0.25559 0.0953-0.35239 0.14594-0.0996 0.0519-0.24325 0.1578-0.32996 0.24325-0.10461 0.10285-0.18325 0.21174-0.24602 0.3403l-0.0923 0.18905-0.16485 0.90746c-0.0907 0.4991-0.42021 2.3876-0.73201 4.197-0.31181 1.8091-0.65665 3.7886-0.76605 4.3986-0.10965 0.61-0.20695 1.1784-0.21627 1.2631-0.009 0.0847-0.004 0.25308 0.0123 0.37458 0.0161 0.1215 0.0618 0.30954 0.10133 0.41818 0.0396 0.10865 0.11368 0.26014 0.1646 0.33677 0.0509 0.0766 0.15679 0.19813 0.23543 0.26997 0.0786 0.0721 0.21326 0.16385 0.29921 0.20418 0.0857 0.0403 0.26165 0.0945 0.39071 0.12074 0.12881 0.026 1.1192 0.2067 2.2006 0.4013 1.0814 0.19435 2.3738 0.42524 2.8718 0.51298 0.63952 0.11268 0.91099 0.17015 0.92409 0.19586 0.0101 0.0199 0.031 0.23468 0.0464 0.47744 0.0154 0.24249 0.0449 0.60547 0.0655 0.80663 0.0209 0.20089 0.0607 0.54698 0.0887 0.76881 0.028 0.22182 0.0855 0.62437 0.1278 0.89485 0.0421 0.27022 0.11595 0.69573 0.1641 0.94527 0.0481 0.24955 0.14922 0.72597 0.22459 1.0587 0.0754 0.33274 0.20998 0.87141 0.29921 1.1973 0.089 0.32567 0.21451 0.76251 0.27854 0.97047 0.0643 0.20796 0.17998 0.56516 0.25711 0.79402 0.0774 0.22863 0.23065 0.65815 0.34055 0.95433 0.11015 0.29619 0.19662 0.54096 0.19233 0.54395-0.004 0.003-0.24577 0.16838-0.53692 0.36727-0.29114 0.19888-0.84117 0.5833-1.2225 0.854-0.38113 0.27073-0.98231 0.69773-1.336 0.9488-0.3534 0.25106-0.90369 0.63549-1.2225 0.85401-0.31887 0.21854-0.6289 0.44465-0.68916 0.50237-0.0602 0.0577-0.15804 0.17292-0.21753 0.25611-0.0595 0.0832-0.13688 0.20821-0.17167 0.27778-0.035 0.0696-0.0872 0.19863-0.1162 0.2866-0.0287 0.088-0.0597 0.2309-0.0686 0.31761-0.009 0.0885-0.003 0.23367 0.0136 0.33097 0.0164 0.0953 0.0559 0.23014 0.088 0.29946 0.0318 0.0693 0.48269 0.73857 1.0017 1.4872 0.51929 0.74864 1.585 2.28 2.3685 3.403 0.78341 1.123 1.7297 2.4842 2.1028 3.0248 0.50337 0.72973 0.72746 1.0325 0.86937 1.1744 0.10511 0.10512 0.26997 0.23796 0.36626 0.29467 0.096 0.057 0.26568 0.13385 0.37659 0.17065 0.11091 0.037 0.28685 0.0731 0.39071 0.0802 0.1041 0.007 0.25156 0 0.32769-0.0159 0.0764-0.0159 0.19989-0.0572 0.27476-0.0918 0.0746-0.0348 0.38667-0.24274 0.69319-0.46229 0.30627-0.21955 1.249-0.88651 2.0947-1.4824 0.84571-0.59563 1.7362-1.2261 1.9788-1.4005 0.36979-0.26593 0.44793-0.31257 0.4827-0.28786 0.0227 0.0161 0.20997 0.17594 0.41591 0.35466 0.20594 0.17897 0.63521 0.53361 0.95411 0.78849 0.31887 0.25459 0.80109 0.62387 1.0713 0.82073 0.27022 0.19661 0.74107 0.52354 1.0461 0.72647 0.30501 0.20291 0.73023 0.47666 0.94527 0.6085 0.21501 0.13158 0.60623 0.36097 0.86964 0.50967 0.26341 0.14848 0.8137 0.43684 1.2225 0.64079 0.40911 0.20367 0.9561 0.46103 1.2157 0.57169 0.27199 0.11595 0.47214 0.21527 0.47264 0.23468 0.00025 0.0184-0.0784 0.4666-0.17494 0.99568-0.0965 0.52908-0.21527 1.1837-0.26392 1.4544-0.0484 0.27072-0.15023 0.86611-0.22585 1.3234-0.0759 0.45699-0.19082 1.1883-0.25586 1.6251-0.0988 0.66545-0.11569 0.83084-0.1036 1.0212 0.008 0.12478 0.0386 0.30627 0.0683 0.40331 0.0295 0.0968 0.0953 0.2556 0.1457 0.35265 0.0539 0.1036 0.15578 0.24022 0.24602 0.33071 0.1026 0.10285 0.21628 0.18503 0.34055 0.24552 0.15881 0.0776 0.27754 0.10789 0.80386 0.20418 0.3398 0.062 0.91249 0.1646 1.273 0.22813 0.36046 0.0633 1.8409 0.31911 3.2895 0.56865 1.4489 0.2493 2.9575 0.51044 3.3525 0.58003 0.39525 0.0696 1.0246 0.18225 1.399 0.25006 0.37433 0.0678 0.74991 0.13082 0.8346 0.14015 0.0847 0.009 0.25308 0.004 0.37458-0.0126 0.12149-0.0161 0.30954-0.0618 0.41818-0.10134 0.10864-0.0396 0.26014-0.11368 0.33677-0.1646 0.0766-0.0509 0.19687-0.15553 0.26719-0.23241 0.0703-0.0769 0.15124-0.18552 0.17973-0.24123 0.0282-0.056 0.0678-0.14746 0.0875-0.20342 0.0199-0.0562 0.20695-1.0668 0.41541-2.246 0.20871-1.1792 0.45572-2.5774 0.54902-3.1073 0.0933-0.52984 0.17469-0.9687 0.18124-0.975 0.006-0.007 0.24955-0.03 0.54068-0.0522 0.29089-0.0222 0.73881-0.0633 0.99518-0.0913 0.25661-0.0277 0.63095-0.0734 0.83184-0.10108 0.20115-0.0277 0.60193-0.0897 0.89108-0.13814 0.28913-0.0484 0.77462-0.13888 1.0786-0.2014 0.304-0.0625 0.80486-0.1762 1.1129-0.25257 0.30778-0.0761 0.77638-0.19989 1.0408-0.27476 0.26442-0.0749 0.68413-0.20015 0.93267-0.27829 0.24853-0.0781 0.70126-0.2314 1.0063-0.34029 0.30501-0.1089 0.65362-0.23745 0.77485-0.28535l0.22056-0.087 0.5634 0.82299c0.30979 0.45272 0.72697 1.0554 0.92713 1.3397 0.19989 0.28408 0.70353 0.99794 1.1192 1.5863 0.41567 0.5881 0.82327 1.1421 0.90569 1.2311 0.0827 0.089 0.2193 0.21123 0.304 0.27173s0.22661 0.14418 0.31533 0.18603c0.0887 0.0418 0.24552 0.095 0.34836 0.11797 0.13058 0.029 0.25334 0.0378 0.40458 0.029 0.14948-0.009 0.26442-0.0323 0.36928-0.0751 0.09-0.0368 0.57324-0.35366 1.1847-0.77661 0.56793-0.39298 1.9344-1.344 3.0365-2.1131 1.1023-0.76909 2.6261-1.8298 3.3863-2.3571 0.76025-0.52708 1.4449-1.0199 1.5213-1.095 0.0761-0.0751 0.19259-0.2193 0.25863-0.32063 0.066-0.10108 0.14948-0.25736 0.18553-0.3471 0.036-0.0897 0.0786-0.24022 0.095-0.33425 0.0169-0.097 0.0232-0.2498 0.0144-0.3534-0.008-0.10032-0.0391-0.24551-0.0678-0.32265-0.0315-0.0839-0.25837-0.43785-0.56289-0.87848-0.28081-0.40584-0.93593-1.3448-1.456-2.0864-0.52028-0.74184-1.1129-1.5898-1.3171-1.8845l-0.3713-0.53587 0.22207-0.24552c0.12226-0.13511 0.34206-0.38743 0.48877-0.56059 0.14646-0.17342 0.37408-0.4512 0.50591-0.61757s0.37029-0.47816 0.53012-0.69319c0.15956-0.21502 0.41416-0.5722 0.56539-0.79403 0.15125-0.22182 0.38365-0.57346 0.51648-0.78142 0.13284-0.20795 0.33323-0.53134 0.44515-0.7184 0.11192-0.18729 0.32996-0.56716 0.48424-0.84443 0.15452-0.27728 0.44289-0.83311 0.64128-1.2352 0.19838-0.40205 0.455-0.94449 0.5702-1.2054 0.18653-0.42273 0.21502-0.47291 0.26165-0.46153 0.0287 0.007 0.30778 0.0585 0.61957 0.11419 0.31206 0.0557 1.3556 0.2319 2.319 0.39121 0.96367 0.15931 2.0355 0.34131 2.3821 0.40407 0.4618 0.0839 0.69469 0.11444 0.87191 0.11469 0.15881 0 0.3103-0.0174 0.44113-0.0504 0.10965-0.0278 0.27879-0.0895 0.37584-0.13738 0.097-0.0479 0.23795-0.14116 0.31307-0.20745 0.0749-0.066 0.17922-0.18628 0.2314-0.2672 0.0524-0.0809 0.11797-0.21728 0.14595-0.30324 0.0277-0.0857 0.0736-0.2866 0.10158-0.44591 0.0277-0.15956 0.11873-0.66998 0.20191-1.1343 0.0834-0.46456 0.37911-2.166 0.65715-3.7811 0.27829-1.6152 0.57899-3.345 0.66826-3.8441 0.0895-0.49911 0.17468-0.96417 0.1893-1.0335 0.0149-0.0693 0.0393-0.30198 0.0547-0.51675 0.0156-0.21501 0.0275-0.47589 0.027-0.57976-0.00091-0.12831-0.0181-0.23367-0.0539-0.32769-0.029-0.0764-0.10209-0.20116-0.16208-0.27753-0.0602-0.0764-0.17216-0.182-0.24904-0.23493-0.0771-0.0532-0.21578-0.12402-0.30829-0.15755-0.10082-0.0365-0.70126-0.15653-1.4968-0.2992-0.7305-0.13083-2.0032-0.3582-2.8282-0.50464-0.82476-0.14671-1.5906-0.28384-1.7015-0.30475-0.11091-0.0209-0.2261-0.0434-0.2561-0.0497l-0.0544-0.0116-0.0164-0.22081c-0.009-0.12125-0.0333-0.42474-0.0534-0.67429-0.0204-0.24955-0.0658-0.69773-0.10083-0.99568-0.0351-0.2982-0.097-0.75748-0.13763-1.0209-0.0408-0.26341-0.1089-0.66622-0.1515-0.89485-0.0423-0.22888-0.1283-0.64858-0.19106-0.93266-0.0628-0.28434-0.15326-0.66975-0.20116-0.85704s-0.13309-0.50491-0.18905-0.7058c-0.0562-0.20115-0.17645-0.6037-0.2672-0.89485-0.091-0.29114-0.25282-0.77335-0.3597-1.0713-0.10688-0.29794-0.26543-0.72166-0.35215-0.94123-0.087-0.2193-0.14821-0.40759-0.13611-0.41793 0.0118-0.0103 0.25434-0.17771 0.53841-0.37181 0.28434-0.19409 1.0272-0.71586 1.6511-1.159 0.62388-0.44339 1.3045-0.92509 1.5124-1.0705 0.20796-0.14544 0.52558-0.36525 0.7058-0.4885 0.18023-0.12301 0.44036-0.32946 0.57799-0.45876 0.13763-0.12931 0.29517-0.29442 0.35012-0.36702 0.0552-0.0726 0.13234-0.20216 0.17167-0.28786 0.0391-0.0857 0.0842-0.23417 0.10007-0.32971 0.0217-0.13234 0.0214-0.21703-0.001-0.3534-0.0166-0.0986-0.0678-0.25661-0.11344-0.35088-0.0456-0.0943-0.45649-0.71033-0.91325-1.3688-0.45677-0.65864-1.5621-2.2467-2.4564-3.529-0.89435-1.2825-1.857-2.6664-2.1388-3.0753-0.28207-0.40912-0.56815-0.81951-0.63571-0.91226-0.0678-0.0925-0.19081-0.23115-0.27374-0.30803-0.0829-0.0766-0.22914-0.18603-0.32517-0.243-0.0958-0.057-0.25737-0.1336-0.35845-0.1704-0.16057-0.058-0.22333-0.0668-0.48673-0.067-0.26795 0-0.32013 0.007-0.45572 0.0643-0.0842 0.0353-0.41314 0.24425-0.731 0.46433-0.31786 0.22031-1.3491 0.94023-2.2918 1.6002-0.94273 0.65992-1.8558 1.2972-2.0292 1.4159l-0.31509 0.21603-0.3529-0.30173c-0.19409-0.16611-0.51171-0.42877-0.7058-0.58407-0.19409-0.15528-0.49457-0.39046-0.66798-0.52255-0.17317-0.13208-0.49104-0.36525-0.70607-0.51851-0.21501-0.15326-0.62338-0.43104-0.90746-0.61757-0.28408-0.18654-0.75471-0.4817-1.0458-0.65589-0.29114-0.17418-0.75041-0.43784-1.0209-0.58606-0.27022-0.14822-0.76379-0.40331-1.0965-0.56666-0.33273-0.16359-0.76931-0.37105-0.97047-0.46103-0.2009-0.09-0.42071-0.18779-0.488-0.21703-0.10512-0.0456-0.12049-0.0615-0.10839-0.11015 0.008-0.0313 0.0544-0.27905 0.10335-0.5508 0.0491-0.27148 0.2256-1.3181 0.39247-2.3258 0.16687-1.0078 0.34836-2.0783 0.40357-2.379 0.0895-0.48723 0.10032-0.58932 0.10007-0.93846-0.00025-0.25989-0.0134-0.44566-0.0386-0.55306-0.0209-0.0887-0.0736-0.22812-0.11697-0.30954-0.0454-0.0849-0.14696-0.21174-0.23871-0.29745-0.0978-0.0915-0.23064-0.183-0.34256-0.23619-0.10058-0.0476-0.25686-0.10435-0.34685-0.12603-0.09-0.0217-0.60624-0.11873-1.1469-0.21602-0.54068-0.0971-1.743-0.30728-2.672-0.46711-0.9289-0.16006-2.4148-0.41617-3.3021-0.56942-0.88727-0.15326-2.0498-0.35769-2.5837-0.45373-0.7378-0.13334-1.0217-0.17468-1.1847-0.17292zm-0.81923 20.773c0.42979-0.002 0.94604 0.007 1.1469 0.0209 0.20115 0.0136 0.56969 0.0482 0.81923 0.0766 0.24955 0.0285 0.65234 0.0857 0.89485 0.12704 0.24274 0.0411 0.64427 0.12099 0.89285 0.17695 0.24855 0.0562 0.61105 0.14721 0.80586 0.20242 0.19485 0.055 0.49634 0.1462 0.66998 0.20241 0.17368 0.0565 0.45196 0.15301 0.61834 0.21476 0.16637 0.0615 0.50464 0.19762 0.75141 0.30223 0.24703 0.10461 0.66672 0.30047 0.93266 0.43533 0.26618 0.1346 0.65389 0.34433 0.86185 0.46606 0.20795 0.12149 0.57092 0.34912 0.80662 0.50564 0.23569 0.15653 0.576 0.39524 0.75621 0.53034 0.18023 0.13511 0.48651 0.37836 0.68059 0.54018 0.1941 0.16209 0.52582 0.45573 0.73731 0.65285 0.21124 0.19712 0.53239 0.51851 0.7131 0.71387 0.18098 0.19535 0.46306 0.51525 0.62664 0.71083 0.16384 0.19535 0.40861 0.50287 0.54449 0.68313 0.13561 0.18023 0.38567 0.53741 0.55555 0.79402 0.17015 0.25661 0.41844 0.65738 0.55202 0.89054 0.13359 0.23342 0.33172 0.60221 0.44037 0.81923 0.10864 0.21729 0.26265 0.54245 0.34256 0.72271 0.0797 0.18023 0.20695 0.4865 0.28282 0.68059 0.0759 0.19409 0.19334 0.51548 0.26115 0.71437 0.0678 0.19863 0.17393 0.53891 0.23619 0.75621 0.062 0.21703 0.15326 0.56992 0.20266 0.78396 0.0494 0.214 0.11721 0.53714 0.15074 0.7184 0.0335 0.18098 0.0839 0.488 0.11192 0.68208 0.0282 0.1941 0.0688 0.52858 0.0902 0.74361 0.0217 0.21476 0.0497 0.66119 0.0623 0.99137 0.0141 0.36551 0.0141 0.83234-0.00026 1.192-0.0126 0.32518-0.0348 0.71841-0.0491 0.87391-0.0144 0.15528-0.0436 0.42424-0.0653 0.59767-0.0214 0.17317-0.0729 0.51348-0.11394 0.75621-0.0411 0.24249-0.11469 0.6168-0.16359 0.83183-0.0487 0.21477-0.13334 0.55306-0.18779 0.75141-0.0547 0.19838-0.15755 0.53869-0.22888 0.75621-0.0713 0.21754-0.18351 0.53715-0.2493 0.71061-0.0658 0.17317-0.1888 0.47666-0.27349 0.67428-0.0849 0.19738-0.25183 0.55483-0.37156 0.79403-0.11948 0.23921-0.31433 0.60497-0.43331 0.81292-0.11872 0.20796-0.30526 0.51902-0.4144 0.6912-0.10915 0.17217-0.3166 0.47844-0.46103 0.68059-0.14443 0.20216-0.36953 0.50188-0.50037 0.66622-0.13083 0.16435-0.37231 0.45323-0.53642 0.64179-0.1641 0.18854-0.48043 0.52504-0.70276 0.74737-0.22208 0.22232-0.53969 0.52431-0.7058 0.67075-0.16587 0.1467-0.42046 0.36298-0.56616 0.48093-0.14545 0.11822-0.3887 0.30778-0.54019 0.42196-0.15149 0.11394-0.45776 0.32946-0.68059 0.47866-0.22283 0.14923-0.51951 0.34055-0.65942 0.42499-0.13965 0.0845-0.41188 0.24023-0.60497 0.34635-0.19283 0.10587-0.50364 0.2672-0.69092 0.35819-0.18729 0.091-0.48071 0.22686-0.65235 0.30198-0.17141 0.0749-0.44364 0.1883-0.60497 0.25182-0.16107 0.0635-0.5084 0.18678-0.77185 0.27425-0.26341 0.0875-0.64831 0.20519-0.85527 0.26191-0.20695 0.0565-0.55279 0.14216-0.76882 0.19006-0.21577 0.0481-0.59087 0.12099-0.8336 0.16208-0.24249 0.0408-0.65085 0.0976-0.90745 0.12603-0.25636 0.0282-0.69873 0.0648-0.98308 0.0809-0.31131 0.0176-0.77738 0.0232-1.1721 0.0136-0.36046-0.008-0.8394-0.032-1.0645-0.0524s-0.55405-0.0557-0.731-0.0781c-0.17695-0.0227-0.54295-0.0804-0.81343-0.12806-0.27022-0.0479-0.67302-0.12754-0.89485-0.17745-0.22182-0.0497-0.61304-0.15099-0.86964-0.22485-0.25636-0.0739-0.63068-0.19031-0.83183-0.25913-0.2009-0.0688-0.50995-0.18275-0.68662-0.25307-0.17645-0.0706-0.46584-0.19209-0.64278-0.27048-0.17696-0.0781-0.47944-0.22106-0.6723-0.31736-0.19283-0.0965-0.49253-0.25509-0.66572-0.35214-0.17342-0.0973-0.43532-0.25081-0.58176-0.3413-0.14645-0.0908-0.40281-0.2556-0.56942-0.36676-0.16637-0.11117-0.47291-0.32971-0.68086-0.48601-0.20796-0.15603-0.50288-0.38768-0.65539-0.51475-0.1525-0.12705-0.46179-0.40104-0.68716-0.609-0.22535-0.20796-0.56993-0.55002-0.76555-0.75998-0.19561-0.20997-0.4749-0.52404-0.62061-0.69773-0.14545-0.17392-0.39802-0.49407-0.56113-0.7116-0.16309-0.21728-0.40407-0.55759-0.53538-0.75621-0.13158-0.19838-0.32391-0.50264-0.42751-0.67605-0.10361-0.17368-0.2861-0.49735-0.40533-0.71968-0.11948-0.22207-0.29644-0.57622-0.39349-0.78672-0.0968-0.21073-0.25509-0.57876-0.35138-0.81823-0.0963-0.23947-0.23216-0.60044-0.30148-0.80236-0.0693-0.20166-0.17973-0.55329-0.24501-0.78142-0.0653-0.22787-0.16209-0.60171-0.21502-0.83034-0.0532-0.22888-0.13108-0.61454-0.17343-0.85704-0.0421-0.24275-0.0988-0.61707-0.12553-0.83183-0.027-0.21502-0.0638-0.56086-0.0817-0.76882-0.0194-0.22157-0.0328-0.74841-0.0328-1.273 0-0.52077 0.0134-1.0423 0.032-1.2477 0.0176-0.1941 0.0539-0.53593 0.0809-0.75948 0.027-0.22359 0.0779-0.57523 0.11318-0.78142 0.0353-0.20619 0.1036-0.55152 0.1515-0.76732 0.0481-0.21602 0.13359-0.56185 0.19006-0.76881 0.0567-0.20696 0.15452-0.53516 0.21753-0.72924 0.063-0.19409 0.1878-0.54395 0.27754-0.77766 0.0895-0.23366 0.23417-0.58529 0.32113-0.78142 0.0872-0.19611 0.21779-0.47589 0.29064-0.62133 0.0729-0.1457 0.20065-0.38945 0.28408-0.54195 0.0834-0.15251 0.22586-0.40206 0.31635-0.55456 0.0908-0.1525 0.27804-0.44742 0.41617-0.65538 0.13814-0.20796 0.37886-0.54826 0.53465-0.75621 0.15578-0.20796 0.40256-0.52028 0.54799-0.69419 0.14544-0.17368 0.42347-0.48651 0.61757-0.6947 0.19409-0.20846 0.51044-0.52558 0.70303-0.70502 0.19258-0.17923 0.49154-0.44617 0.66472-0.59337 0.17293-0.14695 0.50238-0.40911 0.73178-0.5823 0.22964-0.17317 0.58683-0.42826 0.79402-0.56638 0.2072-0.13839 0.53012-0.34257 0.71713-0.45373 0.18729-0.11117 0.50188-0.28812 0.699-0.39349 0.19737-0.10536 0.52935-0.27198 0.7378-0.37004 0.20847-0.0981 0.54096-0.24576 0.73858-0.32794 0.19788-0.0824 0.51525-0.2062 0.7053-0.27476 0.19006-0.0688 0.53012-0.1825 0.75544-0.25232 0.22535-0.0698 0.61381-0.17797 0.86334-0.24023 0.24955-0.0623 0.62968-0.14796 0.84444-0.19056 0.21502-0.0423 0.58352-0.10512 0.81923-0.1394 0.23568-0.034 0.6158-0.0792 0.84443-0.10007 0.22889-0.0209 0.47844-0.0416 0.55456-0.0461 0.0764-0.004 0.49027-0.0101 0.92006-0.0126z"/>
 </g>

</g>
</svg>