<?xml version="1.0" encoding="utf-8"?>
<svg version="1.1" xmlns:cc="http://creativecommons.org/ns#" xmlns:dc="http://purl.org/dc/elements/1.1/" xmlns:rdf="http://www.w3.org/1999/02/22-rdf-syntax-ns#" xmlns="http://www.w3.org/2000/svg" xmlns:xlink="http://www.w3.org/1999/xlink" x="0px" y="0px" viewBox="0 0 1024 768" xml:space="preserve">
<g transform="translate(512,384) scale(1.5 1.2)">
    <path id="path" d="M152.4,-201.9C199,-175.9,239.3,-133.4,249.6,-85C260,-36.7,240.3,17.5,217.4,65.3C194.5,113.1,168.4,154.4,131.6,187.1C94.8,219.9,47.4,243.9,-3.9,249.3C-55.3,254.7,-110.5,241.4,-152.5,210.4C-194.5,179.4,-223.3,130.6,-240,78.2C-256.8,25.8,-261.5,-30.4,-242.2,-75.2C-222.8,-120,-179.3,-153.4,-134.9,-180.2C-90.5,-206.9,-45.3,-227,3.8,-232.2C52.9,-237.5,105.8,-228,152.4,-201.9Z" fill="#e51c25">
	</path>
</g>

<animate xlink:href="#path" attributeType="XML" dur="20s" repeatCount="indefinite" attributeName="d" keyTimes="0; 0.2; 0.4; 0.6; 0.8; 1" calcMode="spline" keySplines="0.9 0.1 0.1 0.9;0.9 0.1 0.1 0.9;0.9 0.1 0.1 0.9;0.9 0.1 0.1 0.9;0.9 0.1 0.1 0.9" values="M120.2,-176.8C149.6,-144.2,162.8,-100.7,175.5,-57.9C188.3,-15,200.7,27.1,195.6,70.1C190.6,113,168.2,156.8,132.7,178C97.2,199.1,48.6,197.5,4.9,190.8C-38.8,184.1,-77.6,172.1,-115.3,151.7C-153,131.3,-189.7,102.4,-205.6,64.2C-221.6,26.1,-216.8,-21.4,-204,-67.9C-191.2,-114.4,-170.2,-160,-134.9,-190.6C-99.5,-221.3,-49.8,-237.2,-2.2,-234.2C45.5,-231.2,90.9,-209.5,120.2,-176.8Z; M152.4,-201.9C199,-175.9,239.3,-133.4,249.6,-85C260,-36.7,240.3,17.5,217.4,65.3C194.5,113.1,168.4,154.4,131.6,187.1C94.8,219.9,47.4,243.9,-3.9,249.3C-55.3,254.7,-110.5,241.4,-152.5,210.4C-194.5,179.4,-223.3,130.6,-240,78.2C-256.8,25.8,-261.5,-30.4,-242.2,-75.2C-222.8,-120,-179.3,-153.4,-134.9,-180.2C-90.5,-206.9,-45.3,-227,3.8,-232.2C52.9,-237.5,105.8,-228,152.4,-201.9Z; M101.9,-120.6C144.2,-109.5,199.1,-96,223.6,-62.7C248.2,-29.4,242.5,23.8,220.4,65.3C198.2,106.8,159.7,136.8,120.2,173.1C80.7,209.4,40.4,252.2,-4.7,258.7C-49.8,265.2,-99.5,235.3,-119,192.5C-138.5,149.7,-127.8,93.8,-144.4,46.1C-161,-1.6,-205.1,-41.3,-214.9,-88C-224.7,-134.6,-200.2,-188.3,-158.7,-199.6C-117.2,-210.9,-58.6,-180,-14.4,-160.1C29.8,-140.3,59.6,-131.6,101.9,-120.6Z; M113.1,-161.5C148.6,-129.9,180.8,-99.5,181.6,-66.3C182.3,-33.1,151.5,3.1,132.4,37.1C113.2,71.2,105.7,103.2,85.6,142.9C65.4,182.7,32.7,230.4,-3.9,235.8C-40.6,241.2,-81.1,204.3,-114.7,168.9C-148.3,133.5,-175,99.5,-198.1,57.5C-221.3,15.5,-240.9,-34.6,-221,-64.4C-201.2,-94.2,-141.7,-103.7,-98.3,-132.8C-54.9,-161.8,-27.4,-210.4,5.7,-218.2C38.8,-226.1,77.6,-193.1,113.1,-161.5Z; M102,-143.7C138.9,-113.5,180.3,-92.8,196.8,-59.7C213.4,-26.7,205.1,18.6,190.6,61.5C176.1,104.4,155.4,144.8,122.5,162.7C89.7,180.5,44.9,175.8,-1.2,177.4C-47.2,179,-94.4,187,-113.8,164.8C-133.1,142.5,-124.6,90.1,-143.6,43.8C-162.6,-2.6,-209.2,-42.9,-216.4,-85.7C-223.7,-128.5,-191.5,-173.9,-148.8,-202.2C-106.2,-230.5,-53.1,-241.7,-10.3,-227.6C32.5,-213.4,65,-173.9,102,-143.7Z; M120.2,-176.8C149.6,-144.2,162.8,-100.7,175.5,-57.9C188.3,-15,200.7,27.1,195.6,70.1C190.6,113,168.2,156.8,132.7,178C97.2,199.1,48.6,197.5,4.9,190.8C-38.8,184.1,-77.6,172.1,-115.3,151.7C-153,131.3,-189.7,102.4,-205.6,64.2C-221.6,26.1,-216.8,-21.4,-204,-67.9C-191.2,-114.4,-170.2,-160,-134.9,-190.6C-99.5,-221.3,-49.8,-237.2,-2.2,-234.2C45.5,-231.2,90.9,-209.5,120.2,-176.8Z" fill="freeze"   />
<path d="m327.53 316.57c-0.12 0-0.29 0.02-0.38 0.03-0.09 0.02-0.23 0.06-0.3 0.09l-0.24 0.12c-0.05 0.04-0.14 0.1-0.2 0.14-0.05 0.05-0.15 0.15-0.2 0.23-0.06 0.08-0.14 0.21-0.17 0.29s-0.08 0.29-0.11 0.47-0.27 1.51-0.53 2.95c-0.25 1.44-0.48 2.68-0.49 2.75l-0.03 0.13-0.22 0.02c-0.12 0.01-0.47 0.04-0.78 0.06-0.31 0.03-0.79 0.08-1.06 0.11-0.27 0.04-0.74 0.11-1.04 0.16-0.29 0.05-0.69 0.11-0.87 0.15-0.18 0.03-0.5 0.1-0.71 0.15-0.22 0.04-0.63 0.14-0.91 0.21-0.29 0.07-0.62 0.16-0.75 0.19-0.12 0.04-0.46 0.14-0.76 0.23-0.29 0.09-0.74 0.24-1 0.33-0.27 0.08-0.67 0.23-0.9 0.32l-0.43 0.16-0.18-0.24c-0.1-0.14-0.37-0.52-0.61-0.86s-0.74-1.06-1.11-1.59-0.88-1.25-1.12-1.6c-0.39-0.54-0.49-0.68-0.75-0.93-0.25-0.23-0.34-0.31-0.49-0.38-0.1-0.04-0.24-0.1-0.32-0.11-0.07-0.02-0.19-0.03-0.25-0.03-0.07 0-0.19 0.02-0.26 0.04-0.08 0.02-0.21 0.07-0.28 0.1-0.07 0.04-0.39 0.25-0.7 0.46-0.31 0.22-0.85 0.59-1.18 0.82-0.34 0.24-1.66 1.16-2.94 2.05s-2.73 1.9-3.23 2.24c-0.5 0.35-0.96 0.68-1.03 0.74-0.07 0.07-0.17 0.18-0.23 0.27-0.06 0.08-0.13 0.21-0.17 0.28-0.03 0.07-0.09 0.2-0.12 0.3-0.05 0.13-0.06 0.23-0.06 0.41 0 0.16 0.02 0.29 0.05 0.39s0.13 0.28 0.33 0.58c0.16 0.24 0.47 0.69 0.69 1 0.21 0.31 0.62 0.9 0.9 1.31 0.29 0.41 0.74 1.04 1 1.41s0.57 0.79 0.68 0.94c0.11 0.14 0.19 0.28 0.19 0.29 0 0.02-0.07 0.12-0.17 0.23-0.09 0.1-0.26 0.3-0.37 0.43s-0.34 0.41-0.51 0.63c-0.17 0.21-0.41 0.52-0.54 0.69-0.12 0.17-0.36 0.49-0.52 0.71s-0.41 0.6-0.57 0.83c-0.16 0.24-0.38 0.6-0.51 0.8-0.12 0.2-0.31 0.51-0.42 0.69-0.1 0.18-0.3 0.53-0.43 0.78-0.14 0.25-0.33 0.61-0.42 0.8-0.1 0.2-0.29 0.6-0.43 0.91s-0.26 0.57-0.26 0.57c-0.01 0.01-0.24-0.03-0.51-0.08-0.27-0.06-0.8-0.15-1.18-0.22-0.37-0.07-1.04-0.19-1.47-0.26-0.44-0.08-1.09-0.19-1.44-0.24-0.36-0.06-0.84-0.13-1.08-0.17-0.35-0.05-0.5-0.06-0.67-0.05-0.13 0-0.31 0.04-0.41 0.07-0.09 0.03-0.25 0.09-0.35 0.14s-0.24 0.16-0.33 0.25c-0.1 0.1-0.18 0.21-0.24 0.34l-0.1 0.19-0.16 0.9c-0.09 0.5-0.42 2.39-0.73 4.2-0.32 1.81-0.66 3.79-0.77 4.4s-0.21 1.18-0.22 1.26c-0.01 0.09 0 0.25 0.01 0.38 0.02 0.12 0.07 0.31 0.11 0.41 0.04 0.11 0.11 0.27 0.16 0.34 0.05 0.08 0.16 0.2 0.24 0.27s0.21 0.16 0.3 0.2c0.08 0.04 0.26 0.1 0.39 0.13 0.13 0.02 1.12 0.2 2.2 0.4 1.08 0.19 2.37 0.42 2.87 0.51 0.64 0.11 0.91 0.17 0.92 0.2 0.01 0.02 0.03 0.23 0.05 0.47 0.01 0.25 0.05 0.61 0.07 0.81s0.06 0.55 0.08 0.77c0.03 0.22 0.09 0.62 0.13 0.89s0.12 0.7 0.17 0.95c0.04 0.25 0.15 0.73 0.22 1.06 0.08 0.33 0.21 0.87 0.3 1.2 0.09 0.32 0.22 0.76 0.28 0.97 0.06 0.2 0.18 0.56 0.26 0.79 0.07 0.23 0.23 0.66 0.34 0.95 0.11 0.3 0.19 0.54 0.19 0.55-0.01 0-0.25 0.17-0.54 0.36-0.29 0.2-0.84 0.59-1.22 0.86s-0.98 0.7-1.34 0.95c-0.35 0.25-0.9 0.63-1.22 0.85s-0.63 0.45-0.69 0.5c-0.06 0.06-0.16 0.18-0.22 0.26s-0.13 0.21-0.17 0.28c-0.03 0.07-0.08 0.2-0.11 0.28-0.03 0.09-0.06 0.24-0.07 0.32-0.01 0.09-0.01 0.24 0.01 0.33 0.02 0.1 0.06 0.23 0.09 0.3s0.48 0.74 1 1.49 1.59 2.28 2.37 3.4c0.78 1.13 1.73 2.49 2.1 3.03 0.51 0.73 0.73 1.03 0.87 1.17 0.11 0.11 0.27 0.24 0.37 0.3 0.09 0.05 0.26 0.13 0.37 0.17 0.11 0.03 0.29 0.07 0.39 0.08 0.11 0.01 0.26 0 0.33-0.02 0.08-0.01 0.2-0.06 0.28-0.09 0.07-0.04 0.38-0.24 0.69-0.46s1.25-0.89 2.09-1.48c0.85-0.6 1.74-1.23 1.98-1.4 0.37-0.27 0.45-0.32 0.49-0.29 0.02 0.01 0.21 0.17 0.41 0.35 0.21 0.18 0.64 0.54 0.96 0.79 0.32 0.26 0.8 0.62 1.07 0.82s0.74 0.52 1.04 0.73c0.31 0.2 0.73 0.47 0.95 0.61 0.21 0.13 0.61 0.36 0.87 0.5 0.26 0.15 0.81 0.44 1.22 0.65 0.41 0.2 0.96 0.46 1.22 0.57 0.27 0.11 0.47 0.21 0.47 0.23s-0.08 0.47-0.18 1c-0.09 0.53-0.21 1.18-0.26 1.45s-0.15 0.87-0.23 1.33c-0.07 0.45-0.19 1.18-0.25 1.62-0.1 0.67-0.12 0.83-0.1 1.02 0 0.13 0.03 0.31 0.06 0.41 0.03 0.09 0.1 0.25 0.15 0.35s0.16 0.24 0.25 0.33c0.1 0.1 0.21 0.18 0.34 0.24 0.15 0.08 0.27 0.11 0.8 0.21 0.34 0.06 0.91 0.16 1.27 0.23 0.36 0.06 1.84 0.32 3.29 0.57s2.96 0.51 3.35 0.58c0.4 0.07 1.03 0.18 1.4 0.25 0.38 0.06 0.75 0.13 0.84 0.13 0.08 0.01 0.25 0.01 0.37-0.01 0.12-0.01 0.31-0.06 0.42-0.1s0.26-0.11 0.34-0.16c0.07-0.05 0.2-0.16 0.27-0.23 0.07-0.08 0.15-0.19 0.18-0.25 0.02-0.05 0.06-0.14 0.08-0.2s0.21-1.07 0.42-2.25 0.45-2.57 0.55-3.1c0.09-0.53 0.17-0.97 0.18-0.98 0-0.01 0.25-0.03 0.54-0.05s0.74-0.06 1-0.09c0.25-0.03 0.62-0.07 0.83-0.1 0.2-0.03 0.6-0.09 0.89-0.14s0.77-0.14 1.08-0.2c0.3-0.06 0.8-0.18 1.11-0.25 0.31-0.08 0.78-0.2 1.04-0.28 0.26-0.07 0.68-0.2 0.93-0.28s0.7-0.23 1.01-0.34c0.3-0.11 0.65-0.24 0.77-0.28l0.22-0.09 0.57 0.82c0.31 0.46 0.72 1.06 0.92 1.34 0.2 0.29 0.71 1 1.12 1.59 0.42 0.59 0.83 1.14 0.91 1.23s0.22 0.21 0.3 0.27c0.09 0.06 0.23 0.15 0.32 0.19s0.24 0.09 0.35 0.11c0.13 0.03 0.25 0.04 0.4 0.03 0.15 0 0.27-0.03 0.37-0.07 0.09-0.04 0.57-0.35 1.19-0.78 0.56-0.39 1.93-1.34 3.03-2.11s2.63-1.83 3.39-2.36 1.44-1.02 1.52-1.09c0.07-0.08 0.19-0.22 0.26-0.32 0.06-0.11 0.15-0.26 0.18-0.35 0.04-0.09 0.08-0.24 0.1-0.33 0.02-0.1 0.02-0.25 0.01-0.36 0-0.1-0.04-0.24-0.07-0.32-0.03-0.09-0.25-0.44-0.56-0.88-0.28-0.4-0.93-1.34-1.45-2.09-0.52-0.74-1.12-1.58-1.32-1.88l-0.37-0.54 0.22-0.24c0.12-0.14 0.34-0.39 0.49-0.56s0.37-0.45 0.5-0.62c0.14-0.17 0.37-0.48 0.53-0.69 0.16-0.22 0.42-0.57 0.57-0.8 0.15-0.22 0.38-0.57 0.52-0.78 0.13-0.21 0.33-0.53 0.44-0.72 0.11-0.18 0.33-0.56 0.49-0.84 0.15-0.28 0.44-0.83 0.64-1.24 0.2-0.4 0.45-0.94 0.57-1.2 0.18-0.42 0.21-0.47 0.26-0.46 0.03 0 0.31 0.05 0.62 0.11s1.35 0.23 2.32 0.39c0.96 0.16 2.03 0.34 2.38 0.41 0.46 0.08 0.69 0.11 0.87 0.11 0.16 0 0.31-0.02 0.44-0.05 0.11-0.03 0.28-0.09 0.38-0.14 0.09-0.04 0.24-0.14 0.31-0.2 0.08-0.07 0.18-0.19 0.23-0.27 0.06-0.08 0.12-0.22 0.15-0.3 0.03-0.09 0.07-0.29 0.1-0.45s0.12-0.67 0.2-1.13c0.09-0.47 0.38-2.17 0.66-3.79 0.28-1.61 0.58-3.34 0.67-3.84s0.17-0.96 0.19-1.03c0.01-0.07 0.04-0.31 0.05-0.52 0.02-0.21 0.03-0.48 0.03-0.58 0-0.13-0.02-0.23-0.05-0.33-0.03-0.07-0.11-0.2-0.17-0.28-0.06-0.07-0.17-0.18-0.25-0.23-0.07-0.05-0.21-0.12-0.3-0.16-0.1-0.03-0.71-0.15-1.5-0.3-0.73-0.13-2-0.35-2.83-0.5-0.82-0.15-1.59-0.28-1.7-0.31-0.11-0.02-0.23-0.04-0.26-0.05l-0.05-0.01-0.02-0.22c-0.01-0.12-0.03-0.42-0.05-0.67s-0.07-0.7-0.1-1c-0.04-0.3-0.1-0.76-0.14-1.02s-0.11-0.67-0.15-0.89c-0.04-0.23-0.13-0.65-0.19-0.94-0.06-0.28-0.16-0.67-0.2-0.85-0.05-0.19-0.14-0.51-0.19-0.71-0.06-0.2-0.18-0.6-0.27-0.9-0.09-0.29-0.25-0.77-0.36-1.07-0.11-0.29-0.26-0.72-0.35-0.94s-0.15-0.4-0.14-0.41c0.01-0.02 0.26-0.18 0.54-0.38 0.29-0.19 1.03-0.71 1.65-1.16 0.63-0.44 1.31-0.92 1.52-1.07 0.2-0.14 0.52-0.36 0.7-0.48 0.18-0.13 0.44-0.33 0.58-0.46s0.29-0.3 0.35-0.37c0.05-0.07 0.13-0.2 0.17-0.29 0.04-0.08 0.08-0.23 0.1-0.33 0.02-0.13 0.02-0.22 0-0.35-0.02-0.1-0.07-0.26-0.11-0.35-0.05-0.1-0.46-0.71-0.92-1.37-0.45-0.66-1.56-2.25-2.45-3.53-0.9-1.28-1.86-2.67-2.14-3.08-0.29-0.4-0.57-0.82-0.64-0.91s-0.19-0.23-0.27-0.31c-0.08-0.07-0.23-0.18-0.33-0.24-0.09-0.06-0.25-0.13-0.36-0.17-0.16-0.06-0.22-0.07-0.48-0.07-0.27 0-0.32 0.01-0.46 0.07-0.08 0.03-0.41 0.24-0.73 0.46s-1.35 0.94-2.29 1.6-1.86 1.3-2.03 1.42l-0.32 0.21-0.35-0.3c-0.19-0.16-0.51-0.43-0.7-0.58-0.2-0.16-0.5-0.39-0.67-0.52-0.18-0.14-0.49-0.37-0.71-0.52-0.21-0.16-0.62-0.43-0.91-0.62-0.28-0.19-0.75-0.48-1.04-0.66-0.29-0.17-0.75-0.43-1.02-0.58s-0.77-0.41-1.1-0.57-0.77-0.37-0.97-0.46-0.42-0.19-0.49-0.22c-0.1-0.04-0.12-0.06-0.11-0.11 0.01-0.03 0.06-0.27 0.11-0.55 0.05-0.27 0.22-1.32 0.39-2.32 0.17-1.01 0.35-2.08 0.4-2.38 0.09-0.49 0.1-0.59 0.1-0.94 0-0.26-0.01-0.45-0.04-0.55-0.02-0.09-0.07-0.23-0.11-0.31-0.05-0.09-0.15-0.22-0.24-0.3-0.1-0.09-0.23-0.18-0.34-0.24-0.1-0.05-0.26-0.1-0.35-0.12s-0.61-0.12-1.15-0.22-1.74-0.31-2.67-0.47-2.41-0.41-3.3-0.56c-0.89-0.16-2.05-0.36-2.59-0.46-0.73-0.13-1.02-0.17-1.18-0.17zm83.46 7.71c-15.43 0-27.98 12.87-27.98 28.77 0 15.91 12.55 28.77 27.98 28.77 15.42 0 27.97-12.86 27.97-28.77 0-15.9-12.55-28.77-27.97-28.77zm-199.39 0.8c-1.76 0-3.28 1.52-3.28 3.28v49.39c0 1.76 1.52 3.27 3.28 3.27 1.84 0 3.35-1.51 3.35-3.27v-42.2l21.02 29.65c1.2 1.76 3.76 1.76 4.96 0l15.66-22.06c1.44-2 0-4.71-2.4-4.79-0.96 0-2.07 0.64-2.63 1.44l-13.11 18.46-22.54-31.81c-0.64-0.8-1.6-1.36-2.71-1.36h-1.6zm53.7 0c-1.84 0-3.35 1.52-3.35 3.28v49.39c0 1.76 1.51 3.27 3.35 3.27 1.76 0 3.28-1.51 3.28-3.27v-49.39c0-1.76-1.52-3.28-3.28-3.28zm196.74 0c-1.76 0-3.27 1.52-3.27 3.28 0 1.84 1.51 3.35 3.27 3.35h19.98c5.44 0 9.91 4.4 9.91 9.83 0 5.44-4.47 9.91-9.91 9.91h-19.98c-1.76 0-3.19 1.36-3.27 3.12v0.16 23.02c0 1.76 1.51 3.27 3.27 3.27 1.84 0 3.36-1.51 3.36-3.27v-19.66h16.62c9.11 0 16.55-7.44 16.55-16.55 0-9.03-7.44-16.46-16.55-16.46h-19.98zm61.01 0c-1.76 0-3.28 1.52-3.28 3.28v49.39c0 1.76 1.52 3.27 3.28 3.27 1.84 0 3.35-1.51 3.35-3.27v-42.2l21.02 29.65c1.2 1.76 3.76 1.76 4.96 0l15.66-22.06c1.44-2 0-4.71-2.4-4.79-0.95 0-2.07 0.64-2.63 1.44l-13.11 18.46-22.54-31.81c-0.64-0.8-1.6-1.36-2.72-1.36h-1.59zm53.7 0c-1.83 0-3.35 1.52-3.35 3.28v49.39c0 1.76 1.52 3.27 3.35 3.27 1.76 0 3.28-1.51 3.28-3.27v-49.39c0-1.76-1.52-3.28-3.28-3.28zm46.12 0c-1.44 0-2.64 0.88-3.2 2.16l-20.14 49.07c-0.88 2.08 0.56 4.47 2.88 4.71h0.24 0.08 23.97c1.84 0 3.28-1.51 3.28-3.27 0-1.84-1.44-3.36-3.28-3.36h-18.94l14.95-36.44 0.96-2.4 0.95 2.4 16.87 40.92c0.48 1.28 1.76 2.15 3.2 2.15 2.39 0 4.07-2.47 3.11-4.71l-20.06-49.07c-0.56-1.28-1.84-2.16-3.2-2.16h-1.67zm47.72 0c-1.76 0-3.28 1.52-3.28 3.28v49.39c0 1.76 1.52 3.27 3.28 3.27 1.84 0 3.36-1.51 3.36-3.27v-49.39c0-1.76-1.52-3.28-3.36-3.28zm27.81 0c-0.96 0-1.91 0.48-2.47 1.28l-18.47 24.05c-0.88 1.2-0.8 2.88 0.16 4l21.58 25.5c0.64 0.72 1.52 1.11 2.4 1.11 2.72 0 4.15-3.11 2.4-5.19l-19.74-23.34 17.02-22.29c1.52-2.08 0.08-5.12-2.56-5.12h-0.32zm27.18 0c-1.75 0-3.27 1.52-3.27 3.28 0 1.84 1.52 3.35 3.27 3.35h28.46c1.83 0 3.35-1.51 3.35-3.35 0-1.76-1.52-3.28-3.35-3.28h-28.46zm53.58 0c-1.76 0-3.28 1.52-3.28 3.28 0 1.84 1.52 3.35 3.28 3.35h19.98c5.43 0 9.91 4.4 9.91 9.83 0 5.44-4.48 9.91-9.91 9.91h-19.98c-1.76 0-3.2 1.36-3.28 3.12v0.16 23.02c0 1.76 1.52 3.27 3.28 3.27 1.83 0 3.35-1.51 3.35-3.27v-19.66h16.63c9.11 0 16.54-7.44 16.54-16.55 0-9.03-7.43-16.46-16.54-16.46h-19.98zm-368.17 5.83c11.74 0 21.33 9.91 21.33 22.14s-9.59 22.14-21.33 22.14c-11.75 0-21.34-9.91-21.34-22.14s9.59-22.14 21.34-22.14zm-84.28 6.43c0.43 0 0.95 0.01 1.15 0.02s0.57 0.05 0.82 0.08 0.65 0.09 0.89 0.13c0.25 0.04 0.65 0.12 0.9 0.17 0.25 0.06 0.61 0.15 0.8 0.21 0.2 0.05 0.5 0.14 0.67 0.2 0.18 0.05 0.45 0.15 0.62 0.21s0.5 0.2 0.75 0.3c0.25 0.11 0.67 0.3 0.93 0.44 0.27 0.13 0.66 0.34 0.87 0.47 0.2 0.12 0.57 0.34 0.8 0.5 0.24 0.16 0.58 0.4 0.76 0.53 0.18 0.14 0.49 0.38 0.68 0.54s0.52 0.46 0.74 0.65c0.21 0.2 0.53 0.52 0.71 0.72 0.18 0.19 0.46 0.51 0.63 0.71 0.16 0.19 0.4 0.5 0.54 0.68s0.39 0.54 0.56 0.8c0.17 0.25 0.41 0.65 0.55 0.89 0.13 0.23 0.33 0.6 0.44 0.82 0.11 0.21 0.26 0.54 0.34 0.72s0.21 0.48 0.28 0.68c0.08 0.19 0.2 0.51 0.27 0.71 0.06 0.2 0.17 0.54 0.23 0.76s0.15 0.57 0.2 0.78c0.05 0.22 0.12 0.54 0.15 0.72 0.04 0.18 0.09 0.49 0.12 0.68 0.03 0.2 0.07 0.53 0.09 0.75 0.02 0.21 0.05 0.66 0.06 0.99 0.01 0.36 0.01 0.83 0 1.19-0.01 0.33-0.03 0.72-0.05 0.88-0.01 0.15-0.04 0.42-0.07 0.59-0.02 0.18-0.07 0.52-0.11 0.76s-0.11 0.62-0.16 0.83c-0.05 0.22-0.14 0.55-0.19 0.75-0.06 0.2-0.16 0.54-0.23 0.76s-0.18 0.54-0.25 0.71c-0.06 0.17-0.19 0.48-0.27 0.67-0.09 0.2-0.25 0.56-0.37 0.8s-0.32 0.6-0.44 0.81-0.3 0.52-0.41 0.69-0.32 0.48-0.46 0.68c-0.15 0.2-0.37 0.5-0.5 0.67-0.13 0.16-0.37 0.45-0.54 0.64-0.16 0.19-0.48 0.52-0.7 0.75-0.22 0.22-0.54 0.52-0.71 0.67-0.16 0.15-0.42 0.36-0.56 0.48-0.15 0.12-0.39 0.31-0.54 0.42-0.16 0.12-0.46 0.33-0.68 0.48-0.23 0.15-0.52 0.34-0.66 0.43-0.14 0.08-0.42 0.24-0.61 0.34-0.19 0.11-0.5 0.27-0.69 0.36s-0.48 0.23-0.65 0.3c-0.17 0.08-0.45 0.19-0.61 0.25-0.16 0.07-0.51 0.19-0.77 0.28s-0.65 0.2-0.85 0.26c-0.21 0.06-0.56 0.14-0.77 0.19-0.22 0.05-0.59 0.12-0.84 0.16-0.24 0.04-0.65 0.1-0.9 0.13-0.26 0.03-0.7 0.06-0.99 0.08-0.31 0.02-0.78 0.02-1.17 0.01-0.36-0.01-0.84-0.03-1.06-0.05-0.23-0.02-0.56-0.06-0.74-0.08-0.17-0.02-0.54-0.08-0.81-0.13s-0.67-0.12-0.89-0.17c-0.23-0.05-0.62-0.16-0.87-0.23-0.26-0.07-0.63-0.19-0.84-0.26-0.2-0.07-0.5-0.18-0.68-0.25s-0.47-0.19-0.64-0.27c-0.18-0.08-0.48-0.22-0.68-0.32-0.19-0.1-0.49-0.25-0.66-0.35-0.18-0.1-0.44-0.25-0.58-0.34-0.15-0.09-0.41-0.26-0.57-0.37-0.17-0.11-0.48-0.33-0.69-0.48-0.2-0.16-0.5-0.39-0.65-0.52s-0.46-0.4-0.69-0.61c-0.22-0.21-0.57-0.55-0.76-0.76-0.2-0.21-0.48-0.52-0.62-0.7-0.15-0.17-0.4-0.49-0.56-0.71-0.17-0.21-0.41-0.56-0.54-0.75-0.13-0.2-0.32-0.51-0.43-0.68-0.1-0.17-0.28-0.5-0.4-0.72s-0.3-0.58-0.4-0.79c-0.09-0.21-0.25-0.58-0.35-0.81-0.09-0.24-0.23-0.61-0.3-0.81s-0.18-0.55-0.24-0.78c-0.07-0.23-0.17-0.6-0.22-0.83s-0.13-0.61-0.17-0.86c-0.05-0.24-0.1-0.61-0.13-0.83-0.03-0.21-0.06-0.56-0.08-0.77-0.02-0.22-0.03-0.74-0.03-1.27 0-0.52 0.01-1.04 0.03-1.25 0.02-0.19 0.05-0.53 0.08-0.76 0.03-0.22 0.08-0.57 0.11-0.78 0.04-0.2 0.11-0.55 0.16-0.77 0.04-0.21 0.13-0.56 0.18-0.76 0.06-0.21 0.16-0.54 0.22-0.73 0.07-0.2 0.19-0.55 0.28-0.78s0.23-0.59 0.32-0.78c0.09-0.2 0.22-0.48 0.29-0.62 0.08-0.15 0.2-0.39 0.29-0.55 0.08-0.15 0.22-0.4 0.31-0.55s0.28-0.45 0.42-0.66c0.14-0.2 0.38-0.54 0.53-0.75 0.16-0.21 0.41-0.52 0.55-0.7 0.15-0.17 0.43-0.48 0.62-0.69s0.51-0.53 0.7-0.71c0.19-0.17 0.49-0.44 0.67-0.59 0.17-0.15 0.5-0.41 0.73-0.58s0.58-0.43 0.79-0.57 0.53-0.34 0.72-0.45 0.5-0.29 0.7-0.4c0.2-0.1 0.53-0.27 0.74-0.37 0.2-0.09 0.54-0.24 0.73-0.32 0.2-0.08 0.52-0.21 0.71-0.28s0.53-0.18 0.76-0.25c0.22-0.07 0.61-0.18 0.86-0.24s0.63-0.15 0.84-0.19c0.22-0.04 0.59-0.11 0.82-0.14 0.24-0.03 0.62-0.08 0.85-0.1s0.47-0.04 0.55-0.05c0.08 0 0.49-0.01 0.92-0.01zm398.87 11.32c-1.75 0-3.27 1.52-3.27 3.35v25.74c0 1.76 1.52 3.27 3.27 3.27h28.46c1.83 0 3.35-1.51 3.35-3.27 0-1.84-1.52-3.36-3.35-3.36h-25.1v-19.1h20.78c1.84 0 3.36-1.44 3.36-3.28 0-1.83-1.52-3.35-3.36-3.35h-24.14zm-238.6 14.14c-2.56 0-4.08 2.72-2.8 4.8l6.95 11.83c0.56 0.95 1.6 1.59 2.72 1.59 2.56 0 4.08-2.71 2.8-4.87l-6.95-11.75c-0.56-1.04-1.6-1.6-2.72-1.6zm317.11 0c-2.56 0-4.07 2.72-2.8 4.8l6.96 11.83c0.56 0.95 1.6 1.59 2.71 1.59 2.56 0 4.08-2.71 2.8-4.87l-6.95-11.75c-0.56-1.04-1.6-1.6-2.72-1.6zm-409.71 62.69c-2.48 0-4.5 0.57-6.05 1.71s-2.32 2.62-2.32 4.46c0 1.16 0.25 2.14 0.76 2.95s1.31 1.52 2.39 2.13c1.1 0.62 2.74 1.22 4.93 1.82 2.18 0.6 3.81 1.19 4.89 1.77 1.09 0.57 1.88 1.23 2.38 1.98 0.5 0.74 0.76 1.65 0.76 2.72 0 1.62-0.72 2.94-2.15 3.96-1.43 1-3.26 1.51-5.47 1.51-2.48 0-4.5-0.58-6.05-1.72-1.55-1.15-2.32-2.75-2.32-4.82h-0.94c0 1.52 0.36 2.85 1.09 3.97 0.74 1.12 1.84 1.99 3.3 2.6 1.46 0.6 3.1 0.9 4.92 0.9 1.65 0 3.13-0.26 4.45-0.8 1.31-0.53 2.33-1.28 3.05-2.25 0.71-0.98 1.07-2.11 1.07-3.38 0-2-0.81-3.6-2.43-4.79-1.27-0.94-3.27-1.76-6.01-2.46-2.74-0.72-4.71-1.54-5.9-2.46-1.19-0.93-1.79-2.15-1.79-3.67 0-1.49 0.69-2.72 2.05-3.71 1.38-0.99 3.17-1.49 5.39-1.49 2.21 0 4.01 0.62 5.4 1.86 1.38 1.22 2.08 2.78 2.08 4.66h0.93c0-1.43-0.35-2.71-1.05-3.85-0.71-1.14-1.71-2.03-3-2.65-1.29-0.64-2.74-0.95-4.36-0.95zm156.96 0.34v25.26h0.94v-23.75l10.43 23.75h0.74l10.48-23.87v23.87h0.93v-25.26h-1.37l-10.42 23.88-10.39-23.88h-1.34zm-95.56 1.43v5.06h-3.47v0.95h3.47v13.44c0.01 1.64 0.31 2.83 0.9 3.59s1.57 1.13 2.93 1.13c0.93 0 1.58-0.07 1.96-0.21l-0.15-0.88c-0.73 0.1-1.35 0.16-1.86 0.16-1.02 0-1.75-0.32-2.18-0.96-0.43-0.63-0.65-1.62-0.65-2.95v-13.32h4.27v-0.95h-4.27v-5.06h-0.95zm-16.39 4.71c-1.86 0-3.38 0.45-4.54 1.34s-1.74 2.02-1.74 3.4c0 1.36 0.46 2.44 1.37 3.22 0.92 0.78 2.54 1.41 4.88 1.91 3.88 0.82 5.82 2.37 5.82 4.65 0 1.11-0.52 2.06-1.57 2.84s-2.4 1.17-4.08 1.17c-1.83 0-3.28-0.37-4.35-1.1-1.07-0.74-1.65-1.77-1.74-3.08h-0.93c0 1.5 0.64 2.73 1.92 3.69 1.29 0.95 2.99 1.42 5.1 1.42 1.96 0 3.55-0.45 4.77-1.35 1.21-0.9 1.82-2.09 1.82-3.57 0-0.96-0.2-1.77-0.61-2.43-0.4-0.67-1.06-1.25-1.96-1.74-0.9-0.48-2.12-0.9-3.67-1.26s-2.73-0.73-3.54-1.11c-0.81-0.39-1.4-0.83-1.75-1.3-0.36-0.49-0.54-1.15-0.54-2 0-1.07 0.48-1.97 1.44-2.69 0.96-0.71 2.26-1.07 3.9-1.07 1.71 0 3.1 0.42 4.16 1.27 1.07 0.84 1.6 1.89 1.6 3.15h0.95c0-1.64-0.61-2.94-1.84-3.9-1.22-0.97-2.85-1.46-4.87-1.46zm36.87 0c-1.53 0-2.81 0.38-3.83 1.15-1.02 0.76-1.78 1.8-2.29 3.1v-3.9h-0.93v18.77h0.93v-12.3c0.34-1.86 1.04-3.31 2.12-4.34 1.07-1.04 2.41-1.56 4-1.56l1.22 0.11 0.1-0.84c-0.33-0.12-0.77-0.19-1.32-0.19zm38.3 0c-1.44 0-2.74 0.42-3.92 1.25s-2.09 2.01-2.72 3.54v-4.44h-0.96v18.77h0.96v-11.87c0.25-1.32 0.76-2.52 1.54-3.6 1.31-1.82 2.99-2.73 5.05-2.73 1.78 0 3.07 0.46 3.88 1.39 0.82 0.91 1.24 2.31 1.25 4.2v12.61h0.94v-12.49c0.07-0.96 0.48-1.96 1.25-2.98 1.33-1.79 3.13-2.69 5.41-2.73 1.77-0.02 3.06 0.47 3.88 1.46 0.83 0.98 1.25 2.5 1.25 4.56v12.18h0.94v-12.25c-0.01-2.29-0.52-4.01-1.51-5.15-0.98-1.15-2.49-1.72-4.51-1.72-1.55 0-2.95 0.41-4.2 1.22-1.25 0.8-2.15 1.87-2.71 3.22-0.31-1.57-0.97-2.7-1.97-3.4-1-0.69-2.28-1.04-3.85-1.04zm76.87 0c-1.59 0-3.01 0.4-4.27 1.2-1.25 0.8-2.22 1.91-2.91 3.35-0.69 1.42-1.03 3.03-1.03 4.82v0.83c0.01 1.77 0.37 3.36 1.06 4.79 0.69 1.41 1.66 2.51 2.91 3.29 1.26 0.79 2.69 1.18 4.27 1.18s3-0.4 4.25-1.19c1.26-0.8 2.23-1.91 2.91-3.33 0.69-1.43 1.03-3.04 1.03-4.84v-0.84c-0.02-1.78-0.37-3.38-1.08-4.8-0.69-1.42-1.66-2.52-2.91-3.3-1.25-0.77-2.66-1.16-4.23-1.16zm22.89 0c-1.58 0-3.01 0.4-4.27 1.2-1.25 0.8-2.22 1.91-2.91 3.35-0.68 1.42-1.02 3.03-1.02 4.82v0.83c0.01 1.77 0.36 3.36 1.05 4.79 0.7 1.41 1.67 2.51 2.92 3.29 1.26 0.79 2.68 1.18 4.26 1.18 1.59 0 3-0.4 4.25-1.19 1.26-0.8 2.24-1.91 2.92-3.33 0.68-1.43 1.02-3.04 1.02-4.84v-0.84c-0.01-1.78-0.37-3.38-1.08-4.8-0.69-1.42-1.66-2.52-2.91-3.3-1.25-0.77-2.66-1.16-4.23-1.16zm23.17 0c-1.54 0-2.81 0.38-3.83 1.15-1.02 0.76-1.78 1.8-2.29 3.1v-3.9h-0.94v18.77h0.94v-12.3c0.33-1.86 1.04-3.31 2.11-4.34 1.08-1.04 2.41-1.56 4.01-1.56l1.22 0.11 0.1-0.84c-0.34-0.12-0.78-0.19-1.32-0.19zm-226.7 0.35v12.09c0.02 2.29 0.54 4.03 1.56 5.24 1.03 1.19 2.57 1.78 4.61 1.78 1.64 0 2.98-0.3 4.05-0.9 1.06-0.61 1.87-1.44 2.42-2.48v3.04h0.96v-18.77h-0.96v13.2c-0.3 1.63-1.01 2.87-2.13 3.71s-2.58 1.27-4.37 1.27c-1.69 0-2.97-0.51-3.85-1.53-0.88-1.03-1.33-2.54-1.35-4.53v-12.12h-0.94zm73.54 0v12.09c0.02 2.29 0.54 4.03 1.56 5.24 1.03 1.19 2.57 1.78 4.61 1.78 1.63 0 2.98-0.3 4.04-0.9 1.07-0.61 1.88-1.44 2.43-2.48v3.04h0.96v-18.77h-0.96v13.2c-0.3 1.63-1.01 2.87-2.13 3.71s-2.58 1.27-4.37 1.27c-1.69 0-2.97-0.51-3.85-1.53-0.88-1.03-1.33-2.54-1.36-4.53v-12.12h-0.93zm107.1 0.59c1.39 0 2.64 0.37 3.74 1.11 1.11 0.73 1.98 1.75 2.6 3.05 0.63 1.31 0.94 2.73 0.94 4.27v0.54c0 2.53-0.68 4.6-2.03 6.21-1.34 1.6-3.08 2.41-5.22 2.41-1.42 0-2.69-0.37-3.8-1.1-1.1-0.73-1.96-1.74-2.58-3.03-0.61-1.31-0.92-2.74-0.92-4.3v-0.56c0-2.47 0.67-4.52 2.03-6.15 1.35-1.63 3.1-2.45 5.24-2.45zm22.89 0c1.4 0 2.65 0.37 3.75 1.11 1.11 0.73 1.97 1.75 2.6 3.05 0.62 1.31 0.93 2.73 0.93 4.27v0.54c0 2.53-0.67 4.6-2.03 6.21-1.34 1.6-3.08 2.41-5.22 2.41-1.42 0-2.68-0.37-3.79-1.1-1.1-0.73-1.96-1.74-2.59-3.03-0.61-1.31-0.92-2.74-0.92-4.3v-0.56c0-2.47 0.68-4.52 2.03-6.15s3.1-2.45 5.24-2.45z" fill="#fcfcfc" transform="translate(153.6 115.2) scale(0.7)" />
</svg>